<svg width="247" height="55" viewBox="0 0 247 55" fill="none" xmlns="http://www.w3.org/2000/svg">
<path d="M75.23 40C74.9807 40 74.7767 39.9207 74.618 39.762C74.4593 39.6033 74.38 39.3993 74.38 39.15V17.05C74.38 16.8007 74.4593 16.5967 74.618 16.438C74.7767 16.2793 74.9807 16.2 75.23 16.2H84.75C86.6313 16.2 88.2633 16.4947 89.646 17.084C91.0513 17.6507 92.1393 18.512 92.91 19.668C93.7033 20.824 94.1 22.286 94.1 24.054C94.1 25.7993 93.7033 27.2387 92.91 28.372C92.1393 29.5053 91.0513 30.344 89.646 30.888C88.2633 31.432 86.6313 31.704 84.75 31.704H80.704V39.15C80.704 39.3993 80.6133 39.6033 80.432 39.762C80.2733 39.9207 80.0693 40 79.82 40H75.23ZM80.602 27.012H84.58C85.5547 27.012 86.3253 26.7627 86.892 26.264C87.4813 25.7653 87.776 25.006 87.776 23.986C87.776 23.1247 87.5267 22.3993 87.028 21.81C86.5293 21.2207 85.7133 20.926 84.58 20.926H80.602V27.012ZM98.2066 40C97.9572 40 97.7532 39.9207 97.5946 39.762C97.4359 39.6033 97.3566 39.3993 97.3566 39.15V17.05C97.3566 16.8007 97.4359 16.5967 97.5946 16.438C97.7532 16.2793 97.9572 16.2 98.2066 16.2H102.695C102.921 16.2 103.114 16.2793 103.273 16.438C103.454 16.5967 103.545 16.8007 103.545 17.05V34.866H113.813C114.062 34.866 114.266 34.9567 114.425 35.138C114.606 35.2967 114.697 35.5007 114.697 35.75V39.15C114.697 39.3993 114.606 39.6033 114.425 39.762C114.266 39.9207 114.062 40 113.813 40H98.2066ZM116.284 40C116.102 40 115.932 39.932 115.774 39.796C115.638 39.6373 115.57 39.4673 115.57 39.286C115.57 39.1727 115.581 39.0707 115.604 38.98L123.594 17.152C123.662 16.9027 123.798 16.6873 124.002 16.506C124.228 16.302 124.534 16.2 124.92 16.2H129.952C130.337 16.2 130.632 16.302 130.836 16.506C131.062 16.6873 131.21 16.9027 131.278 17.152L139.234 38.98C139.279 39.0707 139.302 39.1727 139.302 39.286C139.302 39.4673 139.222 39.6373 139.064 39.796C138.928 39.932 138.758 40 138.554 40H134.372C134.032 40 133.771 39.9207 133.59 39.762C133.431 39.5807 133.329 39.422 133.284 39.286L131.958 35.818H122.88L121.588 39.286C121.542 39.422 121.44 39.5807 121.282 39.762C121.123 39.9207 120.851 40 120.466 40H116.284ZM124.274 30.922H130.598L127.402 21.946L124.274 30.922ZM146.196 40C145.969 40 145.765 39.9207 145.584 39.762C145.425 39.6033 145.346 39.3993 145.346 39.15V31.84L137.458 17.288C137.435 17.22 137.412 17.1633 137.39 17.118C137.367 17.05 137.356 16.982 137.356 16.914C137.356 16.7327 137.424 16.574 137.56 16.438C137.718 16.2793 137.9 16.2 138.104 16.2H142.354C142.694 16.2 142.954 16.2907 143.136 16.472C143.34 16.6307 143.464 16.778 143.51 16.914L148.406 25.686L153.302 16.914C153.37 16.778 153.494 16.6307 153.676 16.472C153.88 16.2907 154.152 16.2 154.492 16.2H158.742C158.946 16.2 159.116 16.2793 159.252 16.438C159.388 16.574 159.456 16.7327 159.456 16.914C159.456 16.982 159.444 17.05 159.422 17.118C159.422 17.1633 159.41 17.22 159.388 17.288L151.466 31.84V39.15C151.466 39.3993 151.386 39.6033 151.228 39.762C151.069 39.9207 150.865 40 150.616 40H146.196ZM163.218 40C162.969 40 162.765 39.9207 162.606 39.762C162.448 39.6033 162.368 39.3993 162.368 39.15V17.05C162.368 16.8007 162.448 16.5967 162.606 16.438C162.765 16.2793 162.969 16.2 163.218 16.2H167.706C167.933 16.2 168.126 16.2793 168.284 16.438C168.466 16.5967 168.556 16.8007 168.556 17.05V34.866H178.824C179.074 34.866 179.278 34.9567 179.436 35.138C179.618 35.2967 179.708 35.5007 179.708 35.75V39.15C179.708 39.3993 179.618 39.6033 179.436 39.762C179.278 39.9207 179.074 40 178.824 40H163.218ZM192.114 40.34C190.028 40.34 188.215 40 186.674 39.32C185.132 38.64 183.931 37.62 183.07 36.26C182.208 34.8773 181.732 33.1547 181.642 31.092C181.619 30.1173 181.608 29.1427 181.608 28.168C181.608 27.1933 181.619 26.2073 181.642 25.21C181.732 23.17 182.208 21.4587 183.07 20.076C183.954 18.6707 185.166 17.6167 186.708 16.914C188.249 16.2113 190.051 15.86 192.114 15.86C194.154 15.86 195.944 16.2113 197.486 16.914C199.05 17.6167 200.274 18.6707 201.158 20.076C202.042 21.4587 202.518 23.17 202.586 25.21C202.631 26.2073 202.654 27.1933 202.654 28.168C202.654 29.1427 202.631 30.1173 202.586 31.092C202.495 33.1547 202.019 34.8773 201.158 36.26C200.296 37.62 199.095 38.64 197.554 39.32C196.012 40 194.199 40.34 192.114 40.34ZM192.114 35.444C193.315 35.444 194.29 35.0813 195.038 34.356C195.808 33.6307 196.216 32.4747 196.262 30.888C196.307 29.8907 196.33 28.95 196.33 28.066C196.33 27.182 196.307 26.264 196.262 25.312C196.216 24.2467 196.012 23.3853 195.65 22.728C195.31 22.048 194.834 21.5493 194.222 21.232C193.61 20.9147 192.907 20.756 192.114 20.756C191.343 20.756 190.652 20.9147 190.04 21.232C189.428 21.5493 188.94 22.048 188.578 22.728C188.215 23.3853 188.011 24.2467 187.966 25.312C187.943 26.264 187.932 27.182 187.932 28.066C187.932 28.95 187.943 29.8907 187.966 30.888C188.034 32.4747 188.442 33.6307 189.19 34.356C189.938 35.0813 190.912 35.444 192.114 35.444ZM207.445 40C207.196 40 206.992 39.9207 206.833 39.762C206.674 39.6033 206.595 39.3993 206.595 39.15V17.05C206.595 16.8007 206.674 16.5967 206.833 16.438C206.992 16.2793 207.196 16.2 207.445 16.2H223.051C223.3 16.2 223.504 16.2793 223.663 16.438C223.844 16.5967 223.935 16.8007 223.935 17.05V20.484C223.935 20.7333 223.844 20.9373 223.663 21.096C223.504 21.2547 223.3 21.334 223.051 21.334H212.579V26.332H222.371C222.62 26.332 222.824 26.4227 222.983 26.604C223.164 26.7627 223.255 26.9667 223.255 27.216V30.616C223.255 30.8427 223.164 31.0467 222.983 31.228C222.824 31.3867 222.62 31.466 222.371 31.466H212.579V39.15C212.579 39.3993 212.5 39.6033 212.341 39.762C212.182 39.9207 211.978 40 211.729 40H207.445ZM233.665 40C233.416 40 233.212 39.9207 233.053 39.762C232.895 39.6033 232.815 39.3993 232.815 39.15V21.538H226.763C226.514 21.538 226.31 21.4587 226.151 21.3C225.993 21.1187 225.913 20.9147 225.913 20.688V17.05C225.913 16.8007 225.993 16.5967 226.151 16.438C226.31 16.2793 226.514 16.2 226.763 16.2H245.055C245.305 16.2 245.509 16.2793 245.667 16.438C245.826 16.5967 245.905 16.8007 245.905 17.05V20.688C245.905 20.9147 245.826 21.1187 245.667 21.3C245.509 21.4587 245.305 21.538 245.055 21.538H239.003V39.15C239.003 39.3993 238.924 39.6033 238.765 39.762C238.607 39.9207 238.403 40 238.153 40H233.665Z" fill="#464646"/>
<rect width="56" height="55" rx="27.5" fill="url(#paint0_linear_1_1278)"/>
<defs>
<linearGradient id="paint0_linear_1_1278" x1="23.8609" y1="-22" x2="81.5424" y2="3.53489" gradientUnits="userSpaceOnUse">
<stop stop-color="#7C68CB"/>
<stop offset="1" stop-color="#C968CB"/>
</linearGradient>
</defs>
</svg>
