<svg width="187" height="95" viewBox="0 0 187 95" fill="none" xmlns="http://www.w3.org/2000/svg">
<path d="M164.55 91.8131C164.55 91.8125 164.55 91.812 164.549 91.8115C164.55 91.8121 164.55 91.8127 164.551 91.8133L164.55 91.8131ZM165.301 91.8105L164.346 92.1073L165.301 91.8105L161.006 77.9922C160.642 76.8206 161.518 75.6316 162.744 75.6316H173.937C180.599 75.6316 186 70.231 186 63.569V24C186 11.2974 175.703 1 163 1H24C11.2974 1 1 11.2974 1 24V52.6316C1 65.3341 11.2974 75.6316 24 75.6316H135.875C141.149 75.6316 146.229 77.6158 150.107 81.1899L162.99 93.0639C163.907 94.1863 165.741 93.2264 165.301 91.8105ZM163.029 93.1C163.029 93.0994 163.028 93.0988 163.027 93.0982L163.029 93.0999L163.029 93.1Z" fill="white" fill-opacity="0.8" stroke="white" stroke-width="2"/>
<path d="M66.584 36C66.4667 36 66.3707 35.9627 66.296 35.888C66.2213 35.8133 66.184 35.7173 66.184 35.6V25.2C66.184 25.0827 66.2213 24.9867 66.296 24.912C66.3707 24.8373 66.4667 24.8 66.584 24.8H74.072C74.1893 24.8 74.2853 24.8373 74.36 24.912C74.4347 24.9867 74.472 25.0827 74.472 25.2V26.56C74.472 26.6667 74.4347 26.7573 74.36 26.832C74.2853 26.9067 74.1893 26.944 74.072 26.944H68.728V29.184H71.208C72.4453 29.184 73.416 29.488 74.12 30.096C74.8347 30.704 75.192 31.5253 75.192 32.56C75.192 33.0187 75.1013 33.456 74.92 33.872C74.7493 34.288 74.4987 34.656 74.168 34.976C73.8373 35.296 73.4213 35.5467 72.92 35.728C72.4293 35.9093 71.8587 36 71.208 36H66.584ZM68.728 34.128H70.968C71.3093 34.128 71.5973 34.0533 71.832 33.904C72.0773 33.7547 72.2587 33.5573 72.376 33.312C72.504 33.0667 72.568 32.8053 72.568 32.528C72.568 32.1013 72.4293 31.744 72.152 31.456C71.8853 31.168 71.4907 31.024 70.968 31.024H68.728V34.128ZM80.2691 36.16C79.3838 36.16 78.6425 36.016 78.0451 35.728C77.4478 35.4293 76.9891 35.008 76.6691 34.464C76.3598 33.92 76.1891 33.2853 76.1571 32.56C76.1465 32.3467 76.1411 32.1067 76.1411 31.84C76.1411 31.5627 76.1465 31.3227 76.1571 31.12C76.1891 30.384 76.3705 29.7493 76.7011 29.216C77.0318 28.672 77.4958 28.256 78.0931 27.968C78.6905 27.6693 79.4158 27.52 80.2691 27.52C81.1118 27.52 81.8318 27.6693 82.4291 27.968C83.0265 28.256 83.4905 28.672 83.8211 29.216C84.1518 29.7493 84.3331 30.384 84.3651 31.12C84.3865 31.3227 84.3971 31.5627 84.3971 31.84C84.3971 32.1067 84.3865 32.3467 84.3651 32.56C84.3331 33.2853 84.1571 33.92 83.8371 34.464C83.5278 35.008 83.0745 35.4293 82.4771 35.728C81.8798 36.016 81.1438 36.16 80.2691 36.16ZM80.2691 34.4C80.7918 34.4 81.1865 34.24 81.4531 33.92C81.7198 33.5893 81.8638 33.1093 81.8851 32.48C81.8958 32.32 81.9011 32.1067 81.9011 31.84C81.9011 31.5733 81.8958 31.36 81.8851 31.2C81.8638 30.5813 81.7198 30.1067 81.4531 29.776C81.1865 29.4453 80.7918 29.28 80.2691 29.28C79.7465 29.28 79.3465 29.4453 79.0691 29.776C78.8025 30.1067 78.6585 30.5813 78.6371 31.2C78.6265 31.36 78.6211 31.5733 78.6211 31.84C78.6211 32.1067 78.6265 32.32 78.6371 32.48C78.6585 33.1093 78.8025 33.5893 79.0691 33.92C79.3465 34.24 79.7465 34.4 80.2691 34.4ZM85.8625 36C85.7558 36 85.6598 35.9627 85.5745 35.888C85.4998 35.8027 85.4625 35.7067 85.4625 35.6V34.4C85.4625 34.1653 85.5905 34.0373 85.8465 34.016C86.1558 33.984 86.3958 33.84 86.5665 33.584C86.7478 33.3173 86.8758 32.912 86.9505 32.368C87.0252 31.824 87.0625 31.1253 87.0625 30.272V28.08C87.0625 27.9627 87.0998 27.8667 87.1745 27.792C87.2492 27.7173 87.3452 27.68 87.4625 27.68H93.4305C93.5478 27.68 93.6438 27.7173 93.7185 27.792C93.7932 27.8667 93.8305 27.9627 93.8305 28.08V35.6C93.8305 35.7173 93.7932 35.8133 93.7185 35.888C93.6438 35.9627 93.5478 36 93.4305 36H91.8305C91.7238 36 91.6278 35.9627 91.5425 35.888C91.4678 35.8133 91.4305 35.7173 91.4305 35.6V29.568H89.3505V30.544C89.3505 31.5573 89.2918 32.416 89.1745 33.12C89.0678 33.824 88.8812 34.3893 88.6145 34.816C88.3478 35.232 87.9905 35.536 87.5425 35.728C87.0945 35.9093 86.5345 36 85.8625 36ZM99.6106 36.16C98.384 36.16 97.408 35.8187 96.6826 35.136C95.968 34.4533 95.5893 33.4613 95.5466 32.16C95.5466 32.0747 95.5466 31.9627 95.5466 31.824C95.5466 31.6747 95.5466 31.5573 95.5466 31.472C95.5893 30.6507 95.776 29.9467 96.1066 29.36C96.4373 28.7627 96.9013 28.3093 97.4986 28C98.096 27.68 98.7946 27.52 99.5946 27.52C100.491 27.52 101.237 27.7067 101.835 28.08C102.443 28.4427 102.896 28.944 103.195 29.584C103.504 30.2133 103.659 30.9387 103.659 31.76V32.128C103.659 32.2347 103.616 32.3253 103.531 32.4C103.456 32.4747 103.365 32.512 103.259 32.512H98.0266C98.0266 32.5227 98.0266 32.544 98.0266 32.576C98.0266 32.5973 98.0266 32.6187 98.0266 32.64C98.0373 32.9813 98.1013 33.296 98.2186 33.584C98.3466 33.8613 98.5226 34.0853 98.7466 34.256C98.9813 34.4267 99.2586 34.512 99.5786 34.512C99.8453 34.512 100.064 34.4747 100.235 34.4C100.405 34.3253 100.544 34.2347 100.651 34.128C100.768 34.0213 100.853 33.9307 100.907 33.856C101.003 33.7493 101.077 33.6853 101.131 33.664C101.195 33.632 101.291 33.616 101.419 33.616H103.083C103.189 33.616 103.275 33.648 103.339 33.712C103.413 33.7653 103.445 33.8453 103.435 33.952C103.424 34.1227 103.333 34.336 103.163 34.592C103.003 34.8373 102.763 35.0827 102.443 35.328C102.123 35.5627 101.723 35.76 101.243 35.92C100.773 36.08 100.229 36.16 99.6106 36.16ZM98.0266 31.056H101.163V31.024C101.163 30.64 101.099 30.3093 100.971 30.032C100.853 29.744 100.677 29.52 100.443 29.36C100.208 29.2 99.9253 29.12 99.5946 29.12C99.264 29.12 98.9813 29.2 98.7466 29.36C98.512 29.52 98.3306 29.744 98.2026 30.032C98.0853 30.3093 98.0266 30.64 98.0266 31.024V31.056ZM108.97 36.16C107.743 36.16 106.767 35.8187 106.042 35.136C105.327 34.4533 104.949 33.4613 104.906 32.16C104.906 32.0747 104.906 31.9627 104.906 31.824C104.906 31.6747 104.906 31.5573 104.906 31.472C104.949 30.6507 105.135 29.9467 105.466 29.36C105.797 28.7627 106.261 28.3093 106.858 28C107.455 27.68 108.154 27.52 108.954 27.52C109.85 27.52 110.597 27.7067 111.194 28.08C111.802 28.4427 112.255 28.944 112.554 29.584C112.863 30.2133 113.018 30.9387 113.018 31.76V32.128C113.018 32.2347 112.975 32.3253 112.89 32.4C112.815 32.4747 112.725 32.512 112.618 32.512H107.386C107.386 32.5227 107.386 32.544 107.386 32.576C107.386 32.5973 107.386 32.6187 107.386 32.64C107.397 32.9813 107.461 33.296 107.578 33.584C107.706 33.8613 107.882 34.0853 108.106 34.256C108.341 34.4267 108.618 34.512 108.938 34.512C109.205 34.512 109.423 34.4747 109.594 34.4C109.765 34.3253 109.903 34.2347 110.01 34.128C110.127 34.0213 110.213 33.9307 110.266 33.856C110.362 33.7493 110.437 33.6853 110.49 33.664C110.554 33.632 110.65 33.616 110.778 33.616H112.442C112.549 33.616 112.634 33.648 112.698 33.712C112.773 33.7653 112.805 33.8453 112.794 33.952C112.783 34.1227 112.693 34.336 112.522 34.592C112.362 34.8373 112.122 35.0827 111.802 35.328C111.482 35.5627 111.082 35.76 110.602 35.92C110.133 36.08 109.589 36.16 108.97 36.16ZM107.386 31.056H110.522V31.024C110.522 30.64 110.458 30.3093 110.33 30.032C110.213 29.744 110.037 29.52 109.802 29.36C109.567 29.2 109.285 29.12 108.954 29.12C108.623 29.12 108.341 29.2 108.106 29.36C107.871 29.52 107.69 29.744 107.562 30.032C107.445 30.3093 107.386 30.64 107.386 31.024V31.056ZM66.392 51C66.2853 51 66.1947 50.9627 66.12 50.888C66.0453 50.8133 66.008 50.7173 66.008 50.6V43.08C66.008 42.9627 66.0453 42.8667 66.12 42.792C66.1947 42.7173 66.2853 42.68 66.392 42.68H73.48C73.5867 42.68 73.6773 42.7173 73.752 42.792C73.8267 42.8667 73.864 42.9627 73.864 43.08V50.6C73.864 50.7173 73.8267 50.8133 73.752 50.888C73.6773 50.9627 73.5867 51 73.48 51H71.88C71.7627 51 71.6667 50.9627 71.592 50.888C71.5173 50.8133 71.48 50.7173 71.48 50.6V44.568H68.392V50.6C68.392 50.7173 68.3547 50.8133 68.28 50.888C68.2053 50.9627 68.1093 51 67.992 51H66.392ZM75.7375 51C75.6308 51 75.5348 50.9627 75.4495 50.888C75.3748 50.8027 75.3375 50.7067 75.3375 50.6V49.4C75.3375 49.1653 75.4655 49.0373 75.7215 49.016C76.0308 48.984 76.2708 48.84 76.4415 48.584C76.6228 48.3173 76.7508 47.912 76.8255 47.368C76.9002 46.824 76.9375 46.1253 76.9375 45.272V43.08C76.9375 42.9627 76.9748 42.8667 77.0495 42.792C77.1242 42.7173 77.2202 42.68 77.3375 42.68H83.3055C83.4228 42.68 83.5188 42.7173 83.5935 42.792C83.6682 42.8667 83.7055 42.9627 83.7055 43.08V50.6C83.7055 50.7173 83.6682 50.8133 83.5935 50.888C83.5188 50.9627 83.4228 51 83.3055 51H81.7055C81.5988 51 81.5028 50.9627 81.4175 50.888C81.3428 50.8133 81.3055 50.7173 81.3055 50.6V44.568H79.2255V45.544C79.2255 46.5573 79.1668 47.416 79.0495 48.12C78.9428 48.824 78.7562 49.3893 78.4895 49.816C78.2228 50.232 77.8655 50.536 77.4175 50.728C76.9695 50.9093 76.4095 51 75.7375 51ZM89.5816 51.16C88.6963 51.16 87.955 51.016 87.3576 50.728C86.7603 50.4293 86.3016 50.008 85.9816 49.464C85.6723 48.92 85.5016 48.2853 85.4696 47.56C85.459 47.3467 85.4536 47.1067 85.4536 46.84C85.4536 46.5627 85.459 46.3227 85.4696 46.12C85.5016 45.384 85.683 44.7493 86.0136 44.216C86.3443 43.672 86.8083 43.256 87.4056 42.968C88.003 42.6693 88.7283 42.52 89.5816 42.52C90.4243 42.52 91.1443 42.6693 91.7416 42.968C92.339 43.256 92.803 43.672 93.1336 44.216C93.4643 44.7493 93.6456 45.384 93.6776 46.12C93.699 46.3227 93.7096 46.5627 93.7096 46.84C93.7096 47.1067 93.699 47.3467 93.6776 47.56C93.6456 48.2853 93.4696 48.92 93.1496 49.464C92.8403 50.008 92.387 50.4293 91.7896 50.728C91.1923 51.016 90.4563 51.16 89.5816 51.16ZM89.5816 49.4C90.1043 49.4 90.499 49.24 90.7656 48.92C91.0323 48.5893 91.1763 48.1093 91.1976 47.48C91.2083 47.32 91.2136 47.1067 91.2136 46.84C91.2136 46.5733 91.2083 46.36 91.1976 46.2C91.1763 45.5813 91.0323 45.1067 90.7656 44.776C90.499 44.4453 90.1043 44.28 89.5816 44.28C89.059 44.28 88.659 44.4453 88.3816 44.776C88.115 45.1067 87.971 45.5813 87.9496 46.2C87.939 46.36 87.9336 46.5733 87.9336 46.84C87.9336 47.1067 87.939 47.32 87.9496 47.48C87.971 48.1093 88.115 48.5893 88.3816 48.92C88.659 49.24 89.059 49.4 89.5816 49.4ZM105.527 52.92C105.42 52.92 105.33 52.8827 105.255 52.808C105.18 52.7333 105.143 52.6373 105.143 52.52V51H95.767C95.6603 51 95.5697 50.9627 95.495 50.888C95.4203 50.8133 95.383 50.7173 95.383 50.6V43.08C95.383 42.9627 95.4203 42.8667 95.495 42.792C95.5697 42.7173 95.6603 42.68 95.767 42.68H97.287C97.4043 42.68 97.5003 42.7173 97.575 42.792C97.6497 42.8667 97.687 42.9627 97.687 43.08V49.112H99.815V43.08C99.815 42.9627 99.8523 42.8667 99.927 42.792C100.002 42.7173 100.092 42.68 100.199 42.68H101.591C101.708 42.68 101.804 42.7173 101.879 42.792C101.954 42.8667 101.991 42.9627 101.991 43.08V49.112H104.119V43.08C104.119 42.9627 104.156 42.8667 104.231 42.792C104.306 42.7173 104.402 42.68 104.519 42.68H106.039C106.146 42.68 106.236 42.7173 106.311 42.792C106.386 42.8667 106.423 42.9627 106.423 43.08V49.112H107.127C107.234 49.112 107.324 49.1493 107.399 49.224C107.484 49.2987 107.527 49.3947 107.527 49.512V52.52C107.527 52.6373 107.484 52.7333 107.399 52.808C107.324 52.8827 107.234 52.92 107.127 52.92H105.527ZM111.347 51.16C110.781 51.16 110.275 51.0533 109.827 50.84C109.379 50.616 109.021 50.3173 108.755 49.944C108.488 49.5707 108.355 49.1547 108.355 48.696C108.355 47.9387 108.659 47.3413 109.267 46.904C109.885 46.4667 110.696 46.168 111.699 46.008L113.795 45.704V45.416C113.795 45 113.699 44.68 113.507 44.456C113.315 44.232 112.979 44.12 112.499 44.12C112.147 44.12 111.864 44.1893 111.651 44.328C111.437 44.4667 111.272 44.648 111.155 44.872C111.069 45.0107 110.947 45.08 110.787 45.08H109.267C109.149 45.08 109.059 45.048 108.995 44.984C108.931 44.9093 108.904 44.824 108.915 44.728C108.915 44.5467 108.984 44.3333 109.123 44.088C109.261 43.8427 109.475 43.6027 109.763 43.368C110.051 43.1227 110.419 42.92 110.867 42.76C111.315 42.6 111.864 42.52 112.515 42.52C113.187 42.52 113.763 42.6 114.243 42.76C114.723 42.92 115.107 43.144 115.395 43.432C115.683 43.72 115.896 44.056 116.035 44.44C116.173 44.8133 116.243 45.2187 116.243 45.656V50.6C116.243 50.7173 116.205 50.8133 116.131 50.888C116.056 50.9627 115.96 51 115.843 51H114.275C114.168 51 114.077 50.9627 114.003 50.888C113.928 50.8133 113.891 50.7173 113.891 50.6V50.008C113.752 50.2107 113.565 50.4027 113.331 50.584C113.096 50.7547 112.813 50.8933 112.483 51C112.163 51.1067 111.784 51.16 111.347 51.16ZM111.987 49.496C112.339 49.496 112.653 49.4213 112.931 49.272C113.208 49.1227 113.427 48.8933 113.587 48.584C113.747 48.2747 113.827 47.8853 113.827 47.416V47.144L112.339 47.384C111.763 47.48 111.341 47.624 111.075 47.816C110.808 48.008 110.675 48.2427 110.675 48.52C110.675 48.7227 110.733 48.8987 110.851 49.048C110.979 49.1973 111.144 49.3093 111.347 49.384C111.549 49.4587 111.763 49.496 111.987 49.496ZM117.924 52.76C117.817 52.76 117.727 52.7227 117.652 52.648C117.577 52.5733 117.54 52.4773 117.54 52.36V49.512C117.54 49.3947 117.577 49.2987 117.652 49.224C117.727 49.1493 117.817 49.112 117.924 49.112H118.068C118.345 49.112 118.564 48.968 118.724 48.68C118.895 48.392 119.017 47.9653 119.092 47.4C119.167 46.8347 119.204 46.1253 119.204 45.272V43.08C119.204 42.9627 119.241 42.8667 119.316 42.792C119.391 42.7173 119.481 42.68 119.588 42.68H125.572C125.689 42.68 125.785 42.7173 125.86 42.792C125.935 42.8667 125.972 42.9627 125.972 43.08V49.096H126.676C126.783 49.096 126.873 49.1333 126.948 49.208C127.023 49.2827 127.06 49.3787 127.06 49.496V52.36C127.06 52.4773 127.023 52.5733 126.948 52.648C126.873 52.7227 126.783 52.76 126.676 52.76H125.076C124.959 52.76 124.863 52.7227 124.788 52.648C124.713 52.5733 124.676 52.4773 124.676 52.36V51H119.924V52.36C119.924 52.4773 119.887 52.5733 119.812 52.648C119.737 52.7227 119.641 52.76 119.524 52.76H117.924ZM120.82 49.112L123.588 49.096V44.568H121.476V45.544C121.476 46.4187 121.417 47.1493 121.3 47.736C121.193 48.3227 121.033 48.7813 120.82 49.112ZM128.83 51C128.723 51 128.632 50.9627 128.558 50.888C128.483 50.8133 128.446 50.7173 128.446 50.6V43.08C128.446 42.9627 128.483 42.8667 128.558 42.792C128.632 42.7173 128.723 42.68 128.83 42.68H130.398C130.515 42.68 130.611 42.7173 130.686 42.792C130.76 42.8667 130.798 42.9627 130.798 43.08V45.832H131.806L133.662 42.936C133.694 42.872 133.742 42.8133 133.806 42.76C133.88 42.7067 133.976 42.68 134.094 42.68H135.838C135.934 42.68 136.014 42.712 136.078 42.776C136.152 42.8293 136.19 42.8987 136.19 42.984C136.19 43.016 136.179 43.0533 136.158 43.096C136.147 43.1387 136.131 43.176 136.11 43.208L133.854 46.696L136.462 50.488C136.504 50.552 136.526 50.6213 136.526 50.696C136.526 50.7813 136.494 50.856 136.43 50.92C136.366 50.9733 136.286 51 136.19 51H134.254C134.147 51 134.056 50.9787 133.982 50.936C133.918 50.8827 133.859 50.8187 133.806 50.744L131.79 47.736H130.798V50.6C130.798 50.7173 130.76 50.8133 130.686 50.888C130.611 50.9627 130.515 51 130.398 51H128.83ZM138.22 51C138.124 51 138.038 50.9627 137.964 50.888C137.889 50.8133 137.852 50.7227 137.852 50.616V43.08C137.852 42.9627 137.889 42.8667 137.964 42.792C138.038 42.7173 138.129 42.68 138.236 42.68H139.836C139.953 42.68 140.049 42.7173 140.124 42.792C140.198 42.8667 140.236 42.9627 140.236 43.08V49.16L139.596 48.792L143.772 42.936C143.825 42.8613 143.884 42.8027 143.948 42.76C144.022 42.7067 144.113 42.68 144.22 42.68H145.66C145.766 42.68 145.857 42.7173 145.932 42.792C146.006 42.8667 146.044 42.952 146.044 43.048V50.6C146.044 50.7173 146.006 50.8133 145.932 50.888C145.857 50.9627 145.761 51 145.644 51H144.044C143.937 51 143.846 50.9627 143.772 50.888C143.697 50.8133 143.66 50.7173 143.66 50.6V44.76L144.316 44.872L140.108 50.744C140.065 50.8187 140.006 50.8827 139.932 50.936C139.857 50.9787 139.772 51 139.676 51H138.22Z" fill="#464646"/>
<path d="M123.413 36C123.306 36 123.215 35.9627 123.141 35.888C123.066 35.8133 123.029 35.7173 123.029 35.6V33.68H117.989C117.882 33.68 117.791 33.6427 117.717 33.568C117.642 33.4933 117.605 33.3973 117.605 33.28V31.984C117.605 31.9093 117.621 31.8293 117.653 31.744C117.685 31.6587 117.727 31.5787 117.781 31.504L122.469 25.072C122.607 24.8907 122.805 24.8 123.061 24.8H125.093C125.199 24.8 125.29 24.8373 125.365 24.912C125.439 24.9867 125.477 25.0827 125.477 25.2V31.552H126.901C127.029 31.552 127.125 31.5893 127.189 31.664C127.263 31.7387 127.301 31.8293 127.301 31.936V33.28C127.301 33.3973 127.263 33.4933 127.189 33.568C127.114 33.6427 127.023 33.68 126.917 33.68H125.477V35.6C125.477 35.7173 125.439 35.8133 125.365 35.888C125.29 35.9627 125.199 36 125.093 36H123.413ZM120.085 31.632H123.077V27.424L120.085 31.632ZM136.672 36.16C135.925 36.16 135.264 36.0747 134.688 35.904C134.122 35.7227 133.648 35.4773 133.264 35.168C132.88 34.848 132.592 34.48 132.4 34.064C132.208 33.6373 132.112 33.1733 132.112 32.672C132.112 32.064 132.261 31.536 132.56 31.088C132.858 30.64 133.237 30.2933 133.696 30.048C133.322 29.8027 133.029 29.4933 132.816 29.12C132.613 28.736 132.512 28.2933 132.512 27.792C132.512 27.184 132.666 26.6453 132.976 26.176C133.285 25.7067 133.744 25.3333 134.352 25.056C134.97 24.7787 135.744 24.64 136.672 24.64C137.589 24.64 138.352 24.7787 138.96 25.056C139.568 25.3227 140.026 25.6907 140.336 26.16C140.645 26.6293 140.8 27.168 140.8 27.776C140.8 28.2773 140.698 28.72 140.496 29.104C140.293 29.488 140.005 29.8027 139.632 30.048C140.122 30.2827 140.512 30.6293 140.8 31.088C141.088 31.5467 141.232 32.08 141.232 32.688C141.232 33.3493 141.061 33.9413 140.72 34.464C140.378 34.9867 139.866 35.4027 139.184 35.712C138.501 36.0107 137.664 36.16 136.672 36.16ZM136.672 34.32C137.045 34.32 137.386 34.256 137.696 34.128C138.005 33.9893 138.245 33.7973 138.416 33.552C138.597 33.3067 138.688 33.0187 138.688 32.688C138.688 32.3467 138.597 32.0587 138.416 31.824C138.245 31.5787 138.005 31.392 137.696 31.264C137.386 31.1253 137.045 31.056 136.672 31.056C136.288 31.056 135.941 31.1253 135.632 31.264C135.333 31.392 135.093 31.5787 134.912 31.824C134.73 32.0587 134.64 32.3467 134.64 32.688C134.64 33.0187 134.73 33.3067 134.912 33.552C135.093 33.7973 135.333 33.9893 135.632 34.128C135.941 34.256 136.288 34.32 136.672 34.32ZM136.672 29.312C137.002 29.3013 137.301 29.2373 137.568 29.12C137.834 29.0027 138.048 28.8427 138.208 28.64C138.368 28.4267 138.448 28.1813 138.448 27.904C138.448 27.616 138.368 27.3707 138.208 27.168C138.058 26.9547 137.85 26.7893 137.584 26.672C137.317 26.5547 137.013 26.496 136.672 26.496C136.33 26.496 136.021 26.5547 135.744 26.672C135.477 26.7893 135.269 26.9547 135.12 27.168C134.97 27.3707 134.896 27.616 134.896 27.904C134.896 28.192 134.97 28.4427 135.12 28.656C135.269 28.8587 135.477 29.0187 135.744 29.136C136.021 29.2533 136.33 29.312 136.672 29.312ZM148.272 36C148.165 36 148.075 35.9627 148 35.888C147.925 35.8133 147.888 35.7173 147.888 35.6V33.68H142.848C142.741 33.68 142.651 33.6427 142.576 33.568C142.501 33.4933 142.464 33.3973 142.464 33.28V31.984C142.464 31.9093 142.48 31.8293 142.512 31.744C142.544 31.6587 142.587 31.5787 142.64 31.504L147.328 25.072C147.467 24.8907 147.664 24.8 147.92 24.8H149.952C150.059 24.8 150.149 24.8373 150.224 24.912C150.299 24.9867 150.336 25.0827 150.336 25.2V31.552H151.76C151.888 31.552 151.984 31.5893 152.048 31.664C152.123 31.7387 152.16 31.8293 152.16 31.936V33.28C152.16 33.3973 152.123 33.4933 152.048 33.568C151.973 33.6427 151.883 33.68 151.776 33.68H150.336V35.6C150.336 35.7173 150.299 35.8133 150.224 35.888C150.149 35.9627 150.059 36 149.952 36H148.272ZM144.944 31.632H147.936V27.424L144.944 31.632ZM158.016 36.16C157.248 36.16 156.587 36.0533 156.032 35.84C155.488 35.616 155.035 35.312 154.672 34.928C154.32 34.5333 154.053 34.08 153.872 33.568C153.701 33.0453 153.6 32.4907 153.568 31.904C153.557 31.616 153.547 31.296 153.536 30.944C153.536 30.5813 153.536 30.2187 153.536 29.856C153.547 29.4933 153.557 29.1627 153.568 28.864C153.589 28.2773 153.691 27.728 153.872 27.216C154.064 26.704 154.341 26.256 154.704 25.872C155.067 25.488 155.52 25.1893 156.064 24.976C156.619 24.752 157.269 24.64 158.016 24.64C158.763 24.64 159.408 24.752 159.952 24.976C160.496 25.1893 160.949 25.488 161.312 25.872C161.675 26.256 161.947 26.704 162.128 27.216C162.32 27.728 162.432 28.2773 162.464 28.864C162.475 29.1627 162.48 29.4933 162.48 29.856C162.491 30.2187 162.491 30.5813 162.48 30.944C162.48 31.296 162.475 31.616 162.464 31.904C162.432 32.4907 162.325 33.0453 162.144 33.568C161.963 34.08 161.691 34.5333 161.328 34.928C160.976 35.312 160.523 35.616 159.968 35.84C159.424 36.0533 158.773 36.16 158.016 36.16ZM158.016 34.08C158.635 34.08 159.088 33.8773 159.376 33.472C159.664 33.0667 159.819 32.5173 159.84 31.824C159.851 31.5147 159.856 31.1947 159.856 30.864C159.867 30.5333 159.867 30.2027 159.856 29.872C159.856 29.5413 159.851 29.232 159.84 28.944C159.819 28.2827 159.664 27.744 159.376 27.328C159.088 26.912 158.635 26.6987 158.016 26.688C157.387 26.6987 156.928 26.912 156.64 27.328C156.363 27.744 156.213 28.2827 156.192 28.944C156.181 29.232 156.171 29.5413 156.16 29.872C156.16 30.2027 156.16 30.5333 156.16 30.864C156.171 31.1947 156.181 31.5147 156.192 31.824C156.213 32.5173 156.368 33.0667 156.656 33.472C156.944 33.8773 157.397 34.08 158.016 34.08Z" fill="#7C68CB"/>
<path d="M41 22C37.8187 22.0042 34.7689 23.2699 32.5194 25.5194C30.2699 27.7689 29.0042 30.8187 29 34C29 42.615 40.18 53.405 40.655 53.86C40.7474 53.9498 40.8712 54 41 54C41.1288 54 41.2526 53.9498 41.345 53.86C41.82 53.405 53 42.615 53 34C52.9958 30.8187 51.7301 27.7689 49.4806 25.5194C47.2311 23.2699 44.1813 22.0042 41 22ZM41 39.5C39.9122 39.5 38.8488 39.1774 37.9444 38.5731C37.0399 37.9687 36.3349 37.1097 35.9187 36.1047C35.5024 35.0998 35.3935 33.9939 35.6057 32.927C35.8179 31.8601 36.3417 30.8801 37.1109 30.1109C37.8801 29.3417 38.8601 28.8179 39.927 28.6057C40.9939 28.3935 42.0998 28.5024 43.1048 28.9187C44.1098 29.3349 44.9687 30.0399 45.5731 30.9444C46.1774 31.8488 46.5 32.9122 46.5 34C46.4991 35.4584 45.9194 36.8568 44.8881 37.8881C43.8569 38.9194 42.4584 39.4991 41 39.5Z" fill="#7C68CB"/>
</svg>
