<svg width="194" height="84" viewBox="0 0 194 84" fill="none" xmlns="http://www.w3.org/2000/svg">
<path d="M24 1H170C182.703 1 193 11.2974 193 24V43.9474C193 56.6499 182.703 66.9474 170 66.9474H51.6608C46.9739 66.9474 42.4217 68.5153 38.7289 71.4015L24.7663 82.3143C23.7717 83.3509 22.0289 82.2889 22.5345 80.9094L26.8235 69.2074C27.2256 68.1101 26.4134 66.9474 25.2447 66.9474H13.1383C6.43448 66.9474 1 61.5129 1 54.8091V24C1 11.2975 11.2975 1 24 1Z" fill="white" fill-opacity="0.8" stroke="white" stroke-width="2"/>
<path d="M68.584 33C68.4667 33 68.3707 32.9627 68.296 32.888C68.2213 32.8133 68.184 32.7173 68.184 32.6V22.2C68.184 22.0827 68.2213 21.9867 68.296 21.912C68.3707 21.8373 68.4667 21.8 68.584 21.8H76.072C76.1893 21.8 76.2853 21.8373 76.36 21.912C76.4347 21.9867 76.472 22.0827 76.472 22.2V23.56C76.472 23.6667 76.4347 23.7573 76.36 23.832C76.2853 23.9067 76.1893 23.944 76.072 23.944H70.728V26.184H73.208C74.4453 26.184 75.416 26.488 76.12 27.096C76.8347 27.704 77.192 28.5253 77.192 29.56C77.192 30.0187 77.1013 30.456 76.92 30.872C76.7493 31.288 76.4987 31.656 76.168 31.976C75.8373 32.296 75.4213 32.5467 74.92 32.728C74.4293 32.9093 73.8587 33 73.208 33H68.584ZM70.728 31.128H72.968C73.3093 31.128 73.5973 31.0533 73.832 30.904C74.0773 30.7547 74.2587 30.5573 74.376 30.312C74.504 30.0667 74.568 29.8053 74.568 29.528C74.568 29.1013 74.4293 28.744 74.152 28.456C73.8853 28.168 73.4907 28.024 72.968 28.024H70.728V31.128ZM82.2691 33.16C81.3838 33.16 80.6425 33.016 80.0451 32.728C79.4478 32.4293 78.9891 32.008 78.6691 31.464C78.3598 30.92 78.1891 30.2853 78.1571 29.56C78.1465 29.3467 78.1411 29.1067 78.1411 28.84C78.1411 28.5627 78.1465 28.3227 78.1571 28.12C78.1891 27.384 78.3705 26.7493 78.7011 26.216C79.0318 25.672 79.4958 25.256 80.0931 24.968C80.6905 24.6693 81.4158 24.52 82.2691 24.52C83.1118 24.52 83.8318 24.6693 84.4291 24.968C85.0265 25.256 85.4905 25.672 85.8211 26.216C86.1518 26.7493 86.3331 27.384 86.3651 28.12C86.3865 28.3227 86.3971 28.5627 86.3971 28.84C86.3971 29.1067 86.3865 29.3467 86.3651 29.56C86.3331 30.2853 86.1571 30.92 85.8371 31.464C85.5278 32.008 85.0745 32.4293 84.4771 32.728C83.8798 33.016 83.1438 33.16 82.2691 33.16ZM82.2691 31.4C82.7918 31.4 83.1865 31.24 83.4531 30.92C83.7198 30.5893 83.8638 30.1093 83.8851 29.48C83.8958 29.32 83.9011 29.1067 83.9011 28.84C83.9011 28.5733 83.8958 28.36 83.8851 28.2C83.8638 27.5813 83.7198 27.1067 83.4531 26.776C83.1865 26.4453 82.7918 26.28 82.2691 26.28C81.7465 26.28 81.3465 26.4453 81.0691 26.776C80.8025 27.1067 80.6585 27.5813 80.6371 28.2C80.6265 28.36 80.6211 28.5733 80.6211 28.84C80.6211 29.1067 80.6265 29.32 80.6371 29.48C80.6585 30.1093 80.8025 30.5893 81.0691 30.92C81.3465 31.24 81.7465 31.4 82.2691 31.4ZM87.8625 33C87.7558 33 87.6598 32.9627 87.5745 32.888C87.4998 32.8027 87.4625 32.7067 87.4625 32.6V31.4C87.4625 31.1653 87.5905 31.0373 87.8465 31.016C88.1558 30.984 88.3958 30.84 88.5665 30.584C88.7478 30.3173 88.8758 29.912 88.9505 29.368C89.0252 28.824 89.0625 28.1253 89.0625 27.272V25.08C89.0625 24.9627 89.0998 24.8667 89.1745 24.792C89.2492 24.7173 89.3452 24.68 89.4625 24.68H95.4305C95.5478 24.68 95.6438 24.7173 95.7185 24.792C95.7932 24.8667 95.8305 24.9627 95.8305 25.08V32.6C95.8305 32.7173 95.7932 32.8133 95.7185 32.888C95.6438 32.9627 95.5478 33 95.4305 33H93.8305C93.7238 33 93.6278 32.9627 93.5425 32.888C93.4678 32.8133 93.4305 32.7173 93.4305 32.6V26.568H91.3505V27.544C91.3505 28.5573 91.2918 29.416 91.1745 30.12C91.0678 30.824 90.8812 31.3893 90.6145 31.816C90.3478 32.232 89.9905 32.536 89.5425 32.728C89.0945 32.9093 88.5345 33 87.8625 33ZM101.611 33.16C100.384 33.16 99.408 32.8187 98.6826 32.136C97.968 31.4533 97.5893 30.4613 97.5466 29.16C97.5466 29.0747 97.5466 28.9627 97.5466 28.824C97.5466 28.6747 97.5466 28.5573 97.5466 28.472C97.5893 27.6507 97.776 26.9467 98.1066 26.36C98.4373 25.7627 98.9013 25.3093 99.4986 25C100.096 24.68 100.795 24.52 101.595 24.52C102.491 24.52 103.237 24.7067 103.835 25.08C104.443 25.4427 104.896 25.944 105.195 26.584C105.504 27.2133 105.659 27.9387 105.659 28.76V29.128C105.659 29.2347 105.616 29.3253 105.531 29.4C105.456 29.4747 105.365 29.512 105.259 29.512H100.027C100.027 29.5227 100.027 29.544 100.027 29.576C100.027 29.5973 100.027 29.6187 100.027 29.64C100.037 29.9813 100.101 30.296 100.219 30.584C100.347 30.8613 100.523 31.0853 100.747 31.256C100.981 31.4267 101.259 31.512 101.579 31.512C101.845 31.512 102.064 31.4747 102.235 31.4C102.405 31.3253 102.544 31.2347 102.651 31.128C102.768 31.0213 102.853 30.9307 102.907 30.856C103.003 30.7493 103.077 30.6853 103.131 30.664C103.195 30.632 103.291 30.616 103.419 30.616H105.083C105.189 30.616 105.275 30.648 105.339 30.712C105.413 30.7653 105.445 30.8453 105.435 30.952C105.424 31.1227 105.333 31.336 105.163 31.592C105.003 31.8373 104.763 32.0827 104.443 32.328C104.123 32.5627 103.723 32.76 103.243 32.92C102.773 33.08 102.229 33.16 101.611 33.16ZM100.027 28.056H103.163V28.024C103.163 27.64 103.099 27.3093 102.971 27.032C102.853 26.744 102.677 26.52 102.443 26.36C102.208 26.2 101.925 26.12 101.595 26.12C101.264 26.12 100.981 26.2 100.747 26.36C100.512 26.52 100.331 26.744 100.203 27.032C100.085 27.3093 100.027 27.64 100.027 28.024V28.056ZM110.97 33.16C109.743 33.16 108.767 32.8187 108.042 32.136C107.327 31.4533 106.949 30.4613 106.906 29.16C106.906 29.0747 106.906 28.9627 106.906 28.824C106.906 28.6747 106.906 28.5573 106.906 28.472C106.949 27.6507 107.135 26.9467 107.466 26.36C107.797 25.7627 108.261 25.3093 108.858 25C109.455 24.68 110.154 24.52 110.954 24.52C111.85 24.52 112.597 24.7067 113.194 25.08C113.802 25.4427 114.255 25.944 114.554 26.584C114.863 27.2133 115.018 27.9387 115.018 28.76V29.128C115.018 29.2347 114.975 29.3253 114.89 29.4C114.815 29.4747 114.725 29.512 114.618 29.512H109.386C109.386 29.5227 109.386 29.544 109.386 29.576C109.386 29.5973 109.386 29.6187 109.386 29.64C109.397 29.9813 109.461 30.296 109.578 30.584C109.706 30.8613 109.882 31.0853 110.106 31.256C110.341 31.4267 110.618 31.512 110.938 31.512C111.205 31.512 111.423 31.4747 111.594 31.4C111.765 31.3253 111.903 31.2347 112.01 31.128C112.127 31.0213 112.213 30.9307 112.266 30.856C112.362 30.7493 112.437 30.6853 112.49 30.664C112.554 30.632 112.65 30.616 112.778 30.616H114.442C114.549 30.616 114.634 30.648 114.698 30.712C114.773 30.7653 114.805 30.8453 114.794 30.952C114.783 31.1227 114.693 31.336 114.522 31.592C114.362 31.8373 114.122 32.0827 113.802 32.328C113.482 32.5627 113.082 32.76 112.602 32.92C112.133 33.08 111.589 33.16 110.97 33.16ZM109.386 28.056H112.522V28.024C112.522 27.64 112.458 27.3093 112.33 27.032C112.213 26.744 112.037 26.52 111.802 26.36C111.567 26.2 111.285 26.12 110.954 26.12C110.623 26.12 110.341 26.2 110.106 26.36C109.871 26.52 109.69 26.744 109.562 27.032C109.445 27.3093 109.386 27.64 109.386 28.024V28.056ZM71.816 48.16C70.9307 48.16 70.1893 48.016 69.592 47.728C68.9947 47.4293 68.536 47.008 68.216 46.464C67.9067 45.92 67.736 45.2853 67.704 44.56C67.6933 44.3467 67.688 44.1067 67.688 43.84C67.688 43.5627 67.6933 43.3227 67.704 43.12C67.736 42.384 67.9173 41.7493 68.248 41.216C68.5787 40.672 69.0427 40.256 69.64 39.968C70.2373 39.6693 70.9627 39.52 71.816 39.52C72.6587 39.52 73.3787 39.6693 73.976 39.968C74.5733 40.256 75.0373 40.672 75.368 41.216C75.6987 41.7493 75.88 42.384 75.912 43.12C75.9333 43.3227 75.944 43.5627 75.944 43.84C75.944 44.1067 75.9333 44.3467 75.912 44.56C75.88 45.2853 75.704 45.92 75.384 46.464C75.0747 47.008 74.6213 47.4293 74.024 47.728C73.4267 48.016 72.6907 48.16 71.816 48.16ZM71.816 46.4C72.3387 46.4 72.7333 46.24 73 45.92C73.2667 45.5893 73.4107 45.1093 73.432 44.48C73.4427 44.32 73.448 44.1067 73.448 43.84C73.448 43.5733 73.4427 43.36 73.432 43.2C73.4107 42.5813 73.2667 42.1067 73 41.776C72.7333 41.4453 72.3387 41.28 71.816 41.28C71.2933 41.28 70.8933 41.4453 70.616 41.776C70.3493 42.1067 70.2053 42.5813 70.184 43.2C70.1733 43.36 70.168 43.5733 70.168 43.84C70.168 44.1067 70.1733 44.32 70.184 44.48C70.2053 45.1093 70.3493 45.5893 70.616 45.92C70.8933 46.24 71.2933 46.4 71.816 46.4ZM82.0814 51.04C81.964 51.04 81.868 51.0027 81.7934 50.928C81.7187 50.8533 81.6814 50.7573 81.6814 50.64V48C80.7214 48 79.9214 47.856 79.2814 47.568C78.652 47.28 78.1774 46.8747 77.8574 46.352C77.5374 45.8187 77.356 45.1947 77.3134 44.48C77.2814 44.0533 77.2814 43.6267 77.3134 43.2C77.356 42.4853 77.5427 41.8667 77.8734 41.344C78.2147 40.8107 78.7 40.4 79.3294 40.112C79.9694 39.824 80.7534 39.68 81.6814 39.68V37.04C81.6814 36.9227 81.7187 36.8267 81.7934 36.752C81.868 36.6773 81.964 36.64 82.0814 36.64H83.6814C83.788 36.64 83.8787 36.6773 83.9534 36.752C84.028 36.8267 84.0654 36.9227 84.0654 37.04V39.68C85.004 39.68 85.788 39.824 86.4174 40.112C87.0574 40.4 87.5427 40.8107 87.8734 41.344C88.2147 41.8667 88.4067 42.4853 88.4494 43.2C88.4707 43.6267 88.4707 44.0533 88.4494 44.48C88.4067 45.1947 88.22 45.8187 87.8894 46.352C87.5694 46.8747 87.0947 47.28 86.4654 47.568C85.836 47.856 85.036 48 84.0654 48V50.64C84.0654 50.7573 84.028 50.8533 83.9534 50.928C83.8787 51.0027 83.788 51.04 83.6814 51.04H82.0814ZM81.6974 46.24V41.44C81.0147 41.44 80.5134 41.6 80.1934 41.92C79.884 42.24 79.7134 42.72 79.6814 43.36C79.6707 43.5093 79.6654 43.6747 79.6654 43.856C79.6654 44.0267 79.6707 44.1813 79.6814 44.32C79.724 44.9707 79.9 45.456 80.2094 45.776C80.5294 46.0853 81.0254 46.24 81.6974 46.24ZM84.0494 46.24C84.7427 46.24 85.244 46.08 85.5534 45.76C85.8627 45.44 86.0387 44.96 86.0814 44.32C86.092 44.1813 86.0974 44.0267 86.0974 43.856C86.0974 43.6747 86.092 43.5093 86.0814 43.36C86.0494 42.7093 85.868 42.2293 85.5374 41.92C85.2174 41.6 84.7214 41.44 84.0494 41.44V46.24ZM90.5323 48C90.4363 48 90.3509 47.9627 90.2763 47.888C90.2016 47.8133 90.1643 47.7227 90.1643 47.616V40.08C90.1643 39.9627 90.2016 39.8667 90.2763 39.792C90.3509 39.7173 90.4416 39.68 90.5483 39.68H92.1483C92.2656 39.68 92.3616 39.7173 92.4363 39.792C92.5109 39.8667 92.5483 39.9627 92.5483 40.08V46.16L91.9083 45.792L96.0843 39.936C96.1376 39.8613 96.1963 39.8027 96.2603 39.76C96.3349 39.7067 96.4256 39.68 96.5323 39.68H97.9722C98.0789 39.68 98.1696 39.7173 98.2443 39.792C98.3189 39.8667 98.3563 39.952 98.3563 40.048V47.6C98.3563 47.7173 98.3189 47.8133 98.2443 47.888C98.1696 47.9627 98.0736 48 97.9563 48H96.3563C96.2496 48 96.1589 47.9627 96.0843 47.888C96.0096 47.8133 95.9723 47.7173 95.9723 47.6V41.76L96.6283 41.872L92.4203 47.744C92.3776 47.8187 92.3189 47.8827 92.2443 47.936C92.1696 47.9787 92.0843 48 91.9883 48H90.5323ZM103.938 48.16C103.16 48.16 102.472 48.016 101.874 47.728C101.288 47.44 100.824 47.024 100.482 46.48C100.141 45.9253 99.9544 45.264 99.9224 44.496C99.9117 44.3253 99.9064 44.112 99.9064 43.856C99.9064 43.5893 99.9117 43.3707 99.9224 43.2C99.9544 42.4213 100.136 41.76 100.466 41.216C100.808 40.6613 101.277 40.24 101.874 39.952C102.472 39.664 103.16 39.52 103.938 39.52C104.653 39.52 105.261 39.6213 105.762 39.824C106.264 40.016 106.674 40.2613 106.994 40.56C107.314 40.8587 107.549 41.1733 107.698 41.504C107.858 41.824 107.944 42.1067 107.954 42.352C107.965 42.4587 107.928 42.5547 107.842 42.64C107.768 42.7147 107.677 42.752 107.57 42.752H105.858C105.752 42.752 105.666 42.7253 105.602 42.672C105.549 42.608 105.496 42.5227 105.442 42.416C105.293 42.0427 105.101 41.776 104.866 41.616C104.632 41.456 104.338 41.376 103.986 41.376C103.506 41.376 103.128 41.5307 102.85 41.84C102.573 42.1493 102.424 42.6293 102.402 43.28C102.392 43.696 102.392 44.0747 102.402 44.416C102.434 45.0773 102.584 45.5573 102.85 45.856C103.128 46.1547 103.506 46.304 103.986 46.304C104.36 46.304 104.658 46.224 104.882 46.064C105.106 45.904 105.293 45.6373 105.442 45.264C105.485 45.1573 105.538 45.0773 105.602 45.024C105.666 44.96 105.752 44.928 105.858 44.928H107.57C107.677 44.928 107.768 44.9707 107.842 45.056C107.928 45.1307 107.965 45.2213 107.954 45.328C107.944 45.5093 107.89 45.7227 107.794 45.968C107.709 46.2133 107.565 46.464 107.362 46.72C107.17 46.976 106.92 47.216 106.61 47.44C106.301 47.6533 105.922 47.8293 105.474 47.968C105.037 48.096 104.525 48.16 103.938 48.16ZM113.332 48.16C112.446 48.16 111.705 48.016 111.108 47.728C110.51 47.4293 110.052 47.008 109.732 46.464C109.422 45.92 109.252 45.2853 109.22 44.56C109.209 44.3467 109.204 44.1067 109.204 43.84C109.204 43.5627 109.209 43.3227 109.22 43.12C109.252 42.384 109.433 41.7493 109.764 41.216C110.094 40.672 110.558 40.256 111.156 39.968C111.753 39.6693 112.478 39.52 113.332 39.52C114.174 39.52 114.894 39.6693 115.492 39.968C116.089 40.256 116.553 40.672 116.884 41.216C117.214 41.7493 117.396 42.384 117.428 43.12C117.449 43.3227 117.46 43.5627 117.46 43.84C117.46 44.1067 117.449 44.3467 117.428 44.56C117.396 45.2853 117.22 45.92 116.9 46.464C116.59 47.008 116.137 47.4293 115.54 47.728C114.942 48.016 114.206 48.16 113.332 48.16ZM113.332 46.4C113.854 46.4 114.249 46.24 114.516 45.92C114.782 45.5893 114.926 45.1093 114.948 44.48C114.958 44.32 114.964 44.1067 114.964 43.84C114.964 43.5733 114.958 43.36 114.948 43.2C114.926 42.5813 114.782 42.1067 114.516 41.776C114.249 41.4453 113.854 41.28 113.332 41.28C112.809 41.28 112.409 41.4453 112.132 41.776C111.865 42.1067 111.721 42.5813 111.7 43.2C111.689 43.36 111.684 43.5733 111.684 43.84C111.684 44.1067 111.689 44.32 111.7 44.48C111.721 45.1093 111.865 45.5893 112.132 45.92C112.409 46.24 112.809 46.4 113.332 46.4ZM119.517 48C119.41 48 119.32 47.9627 119.245 47.888C119.17 47.8133 119.133 47.7173 119.133 47.6V40.08C119.133 39.9627 119.17 39.8667 119.245 39.792C119.32 39.7173 119.41 39.68 119.517 39.68H123.165C124.36 39.68 125.234 39.8933 125.789 40.32C126.354 40.736 126.637 41.3013 126.637 42.016C126.637 42.4427 126.557 42.784 126.397 43.04C126.237 43.2853 126.013 43.4987 125.725 43.68C126.088 43.8507 126.37 44.1067 126.573 44.448C126.786 44.7787 126.893 45.152 126.893 45.568C126.893 46.3253 126.6 46.9227 126.013 47.36C125.426 47.7867 124.546 48 123.373 48H119.517ZM121.437 46.432H123.229C123.602 46.432 123.901 46.3627 124.125 46.224C124.36 46.0747 124.477 45.8453 124.477 45.536C124.477 45.216 124.37 44.9867 124.157 44.848C123.944 44.7093 123.634 44.64 123.229 44.64H121.437V46.432ZM121.437 43.008H123.165C123.549 43.008 123.853 42.928 124.077 42.768C124.301 42.608 124.413 42.3787 124.413 42.08C124.413 41.7707 124.301 41.5573 124.077 41.44C123.853 41.312 123.549 41.248 123.165 41.248H121.437V43.008Z" fill="#464646"/>
<path d="M120.229 33C120.111 33 120.015 32.9627 119.941 32.888C119.866 32.8133 119.829 32.7173 119.829 32.6V31.64C119.829 31.5547 119.85 31.4427 119.893 31.304C119.946 31.1547 120.058 31.0107 120.229 30.872L122.341 28.776C123.119 28.1787 123.749 27.672 124.229 27.256C124.719 26.84 125.082 26.4613 125.317 26.12C125.551 25.7787 125.669 25.448 125.669 25.128C125.669 24.712 125.551 24.3707 125.317 24.104C125.093 23.8267 124.725 23.688 124.213 23.688C123.871 23.688 123.583 23.7627 123.349 23.912C123.125 24.0507 122.949 24.2373 122.821 24.472C122.693 24.7067 122.607 24.9627 122.565 25.24C122.533 25.3787 122.463 25.4747 122.357 25.528C122.261 25.5813 122.159 25.608 122.053 25.608H120.357C120.25 25.608 120.165 25.576 120.101 25.512C120.037 25.4373 120.005 25.3573 120.005 25.272C120.015 24.7813 120.117 24.3173 120.309 23.88C120.511 23.4427 120.794 23.0533 121.157 22.712C121.519 22.3707 121.957 22.104 122.469 21.912C122.981 21.7093 123.562 21.608 124.213 21.608C125.109 21.608 125.861 21.7573 126.469 22.056C127.077 22.344 127.535 22.744 127.845 23.256C128.154 23.768 128.309 24.36 128.309 25.032C128.309 25.544 128.202 26.0187 127.989 26.456C127.786 26.8933 127.487 27.3147 127.093 27.72C126.698 28.1147 126.229 28.5253 125.685 28.952L123.797 30.84H128.149C128.266 30.84 128.362 30.8773 128.437 30.952C128.511 31.0267 128.549 31.1227 128.549 31.24V32.6C128.549 32.7173 128.511 32.8133 128.437 32.888C128.362 32.9627 128.266 33 128.149 33H120.229ZM139.085 33C138.978 33 138.887 32.9627 138.813 32.888C138.738 32.8133 138.701 32.7173 138.701 32.6V30.68H133.661C133.554 30.68 133.463 30.6427 133.389 30.568C133.314 30.4933 133.277 30.3973 133.277 30.28V28.984C133.277 28.9093 133.293 28.8293 133.325 28.744C133.357 28.6587 133.399 28.5787 133.453 28.504L138.141 22.072C138.279 21.8907 138.477 21.8 138.733 21.8H140.765C140.871 21.8 140.962 21.8373 141.036 21.912C141.111 21.9867 141.149 22.0827 141.149 22.2V28.552H142.573C142.701 28.552 142.797 28.5893 142.861 28.664C142.935 28.7387 142.973 28.8293 142.973 28.936V30.28C142.973 30.3973 142.935 30.4933 142.861 30.568C142.786 30.6427 142.695 30.68 142.589 30.68H141.149V32.6C141.149 32.7173 141.111 32.8133 141.036 32.888C140.962 32.9627 140.871 33 140.765 33H139.085ZM135.757 28.632H138.749V24.424L135.757 28.632ZM148.812 33.16C148.066 33.16 147.404 33.0747 146.828 32.904C146.263 32.7227 145.788 32.4773 145.404 32.168C145.02 31.848 144.732 31.48 144.54 31.064C144.348 30.6373 144.252 30.1733 144.252 29.672C144.252 29.064 144.402 28.536 144.7 28.088C144.999 27.64 145.378 27.2933 145.836 27.048C145.463 26.8027 145.17 26.4933 144.956 26.12C144.754 25.736 144.652 25.2933 144.652 24.792C144.652 24.184 144.807 23.6453 145.116 23.176C145.426 22.7067 145.884 22.3333 146.492 22.056C147.111 21.7787 147.884 21.64 148.812 21.64C149.73 21.64 150.492 21.7787 151.1 22.056C151.708 22.3227 152.167 22.6907 152.476 23.16C152.786 23.6293 152.94 24.168 152.94 24.776C152.94 25.2773 152.839 25.72 152.636 26.104C152.434 26.488 152.146 26.8027 151.772 27.048C152.263 27.2827 152.652 27.6293 152.94 28.088C153.228 28.5467 153.372 29.08 153.372 29.688C153.372 30.3493 153.202 30.9413 152.86 31.464C152.519 31.9867 152.007 32.4027 151.324 32.712C150.642 33.0107 149.804 33.16 148.812 33.16ZM148.812 31.32C149.186 31.32 149.527 31.256 149.836 31.128C150.146 30.9893 150.386 30.7973 150.556 30.552C150.738 30.3067 150.828 30.0187 150.828 29.688C150.828 29.3467 150.738 29.0587 150.556 28.824C150.386 28.5787 150.146 28.392 149.836 28.264C149.527 28.1253 149.186 28.056 148.812 28.056C148.428 28.056 148.082 28.1253 147.772 28.264C147.474 28.392 147.234 28.5787 147.052 28.824C146.871 29.0587 146.78 29.3467 146.78 29.688C146.78 30.0187 146.871 30.3067 147.052 30.552C147.234 30.7973 147.474 30.9893 147.772 31.128C148.082 31.256 148.428 31.32 148.812 31.32ZM148.812 26.312C149.143 26.3013 149.442 26.2373 149.708 26.12C149.975 26.0027 150.188 25.8427 150.348 25.64C150.508 25.4267 150.588 25.1813 150.588 24.904C150.588 24.616 150.508 24.3707 150.348 24.168C150.199 23.9547 149.991 23.7893 149.724 23.672C149.458 23.5547 149.154 23.496 148.812 23.496C148.471 23.496 148.162 23.5547 147.884 23.672C147.618 23.7893 147.41 23.9547 147.26 24.168C147.111 24.3707 147.036 24.616 147.036 24.904C147.036 25.192 147.111 25.4427 147.26 25.656C147.41 25.8587 147.618 26.0187 147.884 26.136C148.162 26.2533 148.471 26.312 148.812 26.312ZM160.413 33C160.306 33 160.215 32.9627 160.141 32.888C160.066 32.8133 160.029 32.7173 160.029 32.6V30.68H154.989C154.882 30.68 154.791 30.6427 154.717 30.568C154.642 30.4933 154.605 30.3973 154.605 30.28V28.984C154.605 28.9093 154.621 28.8293 154.653 28.744C154.685 28.6587 154.727 28.5787 154.781 28.504L159.469 22.072C159.607 21.8907 159.805 21.8 160.061 21.8H162.093C162.199 21.8 162.29 21.8373 162.365 21.912C162.439 21.9867 162.477 22.0827 162.477 22.2V28.552H163.901C164.029 28.552 164.125 28.5893 164.189 28.664C164.263 28.7387 164.301 28.8293 164.301 28.936V30.28C164.301 30.3973 164.263 30.4933 164.189 30.568C164.114 30.6427 164.023 30.68 163.917 30.68H162.477V32.6C162.477 32.7173 162.439 32.8133 162.365 32.888C162.29 32.9627 162.199 33 162.093 33H160.413ZM157.085 28.632H160.077V24.424L157.085 28.632Z" fill="#7C68CB"/>
<path d="M42.3733 21.1308L27.72 19.0277C27.04 18.927 26.3467 19.1033 25.8267 19.5189C25.3067 19.947 25 20.5641 25 21.2064V47.7407C25 48.4333 25.6 49 26.3333 49H30.6667V42.3885C30.6667 41.1669 31.7067 40.1846 33 40.1846H36.3333C37.6267 40.1846 38.6667 41.1669 38.6667 42.3885V49H44.3333V23.3095C44.3333 22.2264 43.5067 21.3071 42.3733 21.1308ZM32.3333 37.3511H30.3333C29.7813 37.3511 29.3333 36.928 29.3333 36.4066C29.3333 35.8852 29.7813 35.4621 30.3333 35.4621H32.3333C32.8853 35.4621 33.3333 35.8852 33.3333 36.4066C33.3333 36.928 32.8853 37.3511 32.3333 37.3511ZM32.3333 33.5731H30.3333C29.7813 33.5731 29.3333 33.1499 29.3333 32.6286C29.3333 32.1072 29.7813 31.6841 30.3333 31.6841H32.3333C32.8853 31.6841 33.3333 32.1072 33.3333 32.6286C33.3333 33.1499 32.8853 33.5731 32.3333 33.5731ZM32.3333 29.7951H30.3333C29.7813 29.7951 29.3333 29.3719 29.3333 28.8506C29.3333 28.3292 29.7813 27.9061 30.3333 27.9061H32.3333C32.8853 27.9061 33.3333 28.3292 33.3333 28.8506C33.3333 29.3719 32.8853 29.7951 32.3333 29.7951ZM32.3333 26.017H30.3333C29.7813 26.017 29.3333 25.5939 29.3333 25.0725C29.3333 24.5512 29.7813 24.128 30.3333 24.128H32.3333C32.8853 24.128 33.3333 24.5512 33.3333 25.0725C33.3333 25.5939 32.8853 26.017 32.3333 26.017ZM39 37.3511H37C36.448 37.3511 36 36.928 36 36.4066C36 35.8852 36.448 35.4621 37 35.4621H39C39.552 35.4621 40 35.8852 40 36.4066C40 36.928 39.552 37.3511 39 37.3511ZM39 33.5731H37C36.448 33.5731 36 33.1499 36 32.6286C36 32.1072 36.448 31.6841 37 31.6841H39C39.552 31.6841 40 32.1072 40 32.6286C40 33.1499 39.552 33.5731 39 33.5731ZM39 29.7951H37C36.448 29.7951 36 29.3719 36 28.8506C36 28.3292 36.448 27.9061 37 27.9061H39C39.552 27.9061 40 28.3292 40 28.8506C40 29.3719 39.552 29.7951 39 29.7951ZM39 26.017H37C36.448 26.017 36 25.5939 36 25.0725C36 24.5512 36.448 24.128 37 24.128H39C39.552 24.128 40 24.5512 40 25.0725C40 25.5939 39.552 26.017 39 26.017Z" fill="#7C68CB"/>
<path d="M55.16 32.4296L45.6667 30.5519V49H54.6667C55.9533 49 57 48.0114 57 46.7962V34.5831C57 33.5429 56.2493 32.6575 55.16 32.4296ZM52 45.222H50C49.448 45.222 49 44.7988 49 44.2775C49 43.7561 49.448 43.333 50 43.333H52C52.552 43.333 53 43.7561 53 44.2775C53 44.7988 52.552 45.222 52 45.222ZM52 41.444H50C49.448 41.444 49 41.0208 49 40.4995C49 39.9781 49.448 39.555 50 39.555H52C52.552 39.555 53 39.9781 53 40.4995C53 41.0208 52.552 41.444 52 41.444ZM52 37.6659H50C49.448 37.6659 49 37.2428 49 36.7214C49 36.2001 49.448 35.7769 50 35.7769H52C52.552 35.7769 53 36.2001 53 36.7214C53 37.2428 52.552 37.6659 52 37.6659Z" fill="#7C68CB"/>
</svg>
