<svg width="253" height="99" viewBox="0 0 253 99" fill="none" xmlns="http://www.w3.org/2000/svg">
<path d="M31.552 97.1084L31.2355 96.6605L31.2352 96.6602L30.9748 96.2917L31.2351 96.66L31.2353 96.6604L31.5519 97.1084C31.5527 97.1079 31.5534 97.1074 31.5541 97.1069L31.552 97.1084ZM31.5893 97.082C30.474 98.1565 28.6512 96.945 29.2427 95.4856L34.7231 81.9629C35.3377 80.4462 34.2216 78.7895 32.5851 78.7895H16.2872C7.84433 78.7895 1 71.9452 1 63.5023V24C1 11.2975 11.2974 1 24 1H229C241.703 1 252 11.2974 252 24V55.7895C252 68.492 241.703 78.7895 229 78.7895H64.1415C59.8001 78.7895 55.5655 80.135 52.0203 82.6408L31.5893 97.082ZM31.6286 97.0429C31.6281 97.0434 31.6276 97.0439 31.6271 97.0444C31.6276 97.0438 31.6282 97.0433 31.6287 97.0428L31.6286 97.0429Z" fill="white" fill-opacity="0.8" stroke="white" stroke-width="2"/>
<path d="M73.584 38C73.4667 38 73.3707 37.9627 73.296 37.888C73.2213 37.8133 73.184 37.7173 73.184 37.6V27.2C73.184 27.0827 73.2213 26.9867 73.296 26.912C73.3707 26.8373 73.4667 26.8 73.584 26.8H81.072C81.1893 26.8 81.2853 26.8373 81.36 26.912C81.4347 26.9867 81.472 27.0827 81.472 27.2V28.56C81.472 28.6667 81.4347 28.7573 81.36 28.832C81.2853 28.9067 81.1893 28.944 81.072 28.944H75.728V31.184H78.208C79.4453 31.184 80.416 31.488 81.12 32.096C81.8347 32.704 82.192 33.5253 82.192 34.56C82.192 35.0187 82.1013 35.456 81.92 35.872C81.7493 36.288 81.4987 36.656 81.168 36.976C80.8373 37.296 80.4213 37.5467 79.92 37.728C79.4293 37.9093 78.8587 38 78.208 38H73.584ZM75.728 36.128H77.968C78.3093 36.128 78.5973 36.0533 78.832 35.904C79.0773 35.7547 79.2587 35.5573 79.376 35.312C79.504 35.0667 79.568 34.8053 79.568 34.528C79.568 34.1013 79.4293 33.744 79.152 33.456C78.8853 33.168 78.4907 33.024 77.968 33.024H75.728V36.128ZM87.2691 38.16C86.3838 38.16 85.6425 38.016 85.0451 37.728C84.4478 37.4293 83.9891 37.008 83.6691 36.464C83.3598 35.92 83.1891 35.2853 83.1571 34.56C83.1465 34.3467 83.1411 34.1067 83.1411 33.84C83.1411 33.5627 83.1465 33.3227 83.1571 33.12C83.1891 32.384 83.3705 31.7493 83.7011 31.216C84.0318 30.672 84.4958 30.256 85.0931 29.968C85.6905 29.6693 86.4158 29.52 87.2691 29.52C88.1118 29.52 88.8318 29.6693 89.4291 29.968C90.0265 30.256 90.4905 30.672 90.8211 31.216C91.1518 31.7493 91.3331 32.384 91.3651 33.12C91.3865 33.3227 91.3971 33.5627 91.3971 33.84C91.3971 34.1067 91.3865 34.3467 91.3651 34.56C91.3331 35.2853 91.1571 35.92 90.8371 36.464C90.5278 37.008 90.0745 37.4293 89.4771 37.728C88.8798 38.016 88.1438 38.16 87.2691 38.16ZM87.2691 36.4C87.7918 36.4 88.1865 36.24 88.4531 35.92C88.7198 35.5893 88.8638 35.1093 88.8851 34.48C88.8958 34.32 88.9011 34.1067 88.9011 33.84C88.9011 33.5733 88.8958 33.36 88.8851 33.2C88.8638 32.5813 88.7198 32.1067 88.4531 31.776C88.1865 31.4453 87.7918 31.28 87.2691 31.28C86.7465 31.28 86.3465 31.4453 86.0691 31.776C85.8025 32.1067 85.6585 32.5813 85.6371 33.2C85.6265 33.36 85.6211 33.5733 85.6211 33.84C85.6211 34.1067 85.6265 34.32 85.6371 34.48C85.6585 35.1093 85.8025 35.5893 86.0691 35.92C86.3465 36.24 86.7465 36.4 87.2691 36.4ZM92.8625 38C92.7558 38 92.6598 37.9627 92.5745 37.888C92.4998 37.8027 92.4625 37.7067 92.4625 37.6V36.4C92.4625 36.1653 92.5905 36.0373 92.8465 36.016C93.1558 35.984 93.3958 35.84 93.5665 35.584C93.7478 35.3173 93.8758 34.912 93.9505 34.368C94.0252 33.824 94.0625 33.1253 94.0625 32.272V30.08C94.0625 29.9627 94.0998 29.8667 94.1745 29.792C94.2492 29.7173 94.3452 29.68 94.4625 29.68H100.431C100.548 29.68 100.644 29.7173 100.719 29.792C100.793 29.8667 100.831 29.9627 100.831 30.08V37.6C100.831 37.7173 100.793 37.8133 100.719 37.888C100.644 37.9627 100.548 38 100.431 38H98.8305C98.7238 38 98.6278 37.9627 98.5425 37.888C98.4678 37.8133 98.4305 37.7173 98.4305 37.6V31.568H96.3505V32.544C96.3505 33.5573 96.2918 34.416 96.1745 35.12C96.0678 35.824 95.8812 36.3893 95.6145 36.816C95.3478 37.232 94.9905 37.536 94.5425 37.728C94.0945 37.9093 93.5345 38 92.8625 38ZM106.611 38.16C105.384 38.16 104.408 37.8187 103.683 37.136C102.968 36.4533 102.589 35.4613 102.547 34.16C102.547 34.0747 102.547 33.9627 102.547 33.824C102.547 33.6747 102.547 33.5573 102.547 33.472C102.589 32.6507 102.776 31.9467 103.107 31.36C103.437 30.7627 103.901 30.3093 104.499 30C105.096 29.68 105.795 29.52 106.595 29.52C107.491 29.52 108.237 29.7067 108.835 30.08C109.443 30.4427 109.896 30.944 110.195 31.584C110.504 32.2133 110.659 32.9387 110.659 33.76V34.128C110.659 34.2347 110.616 34.3253 110.531 34.4C110.456 34.4747 110.365 34.512 110.259 34.512H105.027C105.027 34.5227 105.027 34.544 105.027 34.576C105.027 34.5973 105.027 34.6187 105.027 34.64C105.037 34.9813 105.101 35.296 105.219 35.584C105.347 35.8613 105.523 36.0853 105.747 36.256C105.981 36.4267 106.259 36.512 106.579 36.512C106.845 36.512 107.064 36.4747 107.235 36.4C107.405 36.3253 107.544 36.2347 107.651 36.128C107.768 36.0213 107.853 35.9307 107.907 35.856C108.003 35.7493 108.077 35.6853 108.131 35.664C108.195 35.632 108.291 35.616 108.419 35.616H110.083C110.189 35.616 110.275 35.648 110.339 35.712C110.413 35.7653 110.445 35.8453 110.435 35.952C110.424 36.1227 110.333 36.336 110.163 36.592C110.003 36.8373 109.763 37.0827 109.443 37.328C109.123 37.5627 108.723 37.76 108.243 37.92C107.773 38.08 107.229 38.16 106.611 38.16ZM105.027 33.056H108.163V33.024C108.163 32.64 108.099 32.3093 107.971 32.032C107.853 31.744 107.677 31.52 107.443 31.36C107.208 31.2 106.925 31.12 106.595 31.12C106.264 31.12 105.981 31.2 105.747 31.36C105.512 31.52 105.331 31.744 105.203 32.032C105.085 32.3093 105.027 32.64 105.027 33.024V33.056ZM115.97 38.16C114.743 38.16 113.767 37.8187 113.042 37.136C112.327 36.4533 111.949 35.4613 111.906 34.16C111.906 34.0747 111.906 33.9627 111.906 33.824C111.906 33.6747 111.906 33.5573 111.906 33.472C111.949 32.6507 112.135 31.9467 112.466 31.36C112.797 30.7627 113.261 30.3093 113.858 30C114.455 29.68 115.154 29.52 115.954 29.52C116.85 29.52 117.597 29.7067 118.194 30.08C118.802 30.4427 119.255 30.944 119.554 31.584C119.863 32.2133 120.018 32.9387 120.018 33.76V34.128C120.018 34.2347 119.975 34.3253 119.89 34.4C119.815 34.4747 119.725 34.512 119.618 34.512H114.386C114.386 34.5227 114.386 34.544 114.386 34.576C114.386 34.5973 114.386 34.6187 114.386 34.64C114.397 34.9813 114.461 35.296 114.578 35.584C114.706 35.8613 114.882 36.0853 115.106 36.256C115.341 36.4267 115.618 36.512 115.938 36.512C116.205 36.512 116.423 36.4747 116.594 36.4C116.765 36.3253 116.903 36.2347 117.01 36.128C117.127 36.0213 117.213 35.9307 117.266 35.856C117.362 35.7493 117.437 35.6853 117.49 35.664C117.554 35.632 117.65 35.616 117.778 35.616H119.442C119.549 35.616 119.634 35.648 119.698 35.712C119.773 35.7653 119.805 35.8453 119.794 35.952C119.783 36.1227 119.693 36.336 119.522 36.592C119.362 36.8373 119.122 37.0827 118.802 37.328C118.482 37.5627 118.082 37.76 117.602 37.92C117.133 38.08 116.589 38.16 115.97 38.16ZM114.386 33.056H117.522V33.024C117.522 32.64 117.458 32.3093 117.33 32.032C117.213 31.744 117.037 31.52 116.802 31.36C116.567 31.2 116.285 31.12 115.954 31.12C115.623 31.12 115.341 31.2 115.106 31.36C114.871 31.52 114.69 31.744 114.562 32.032C114.445 32.3093 114.386 32.64 114.386 33.024V33.056ZM73.392 53C73.2853 53 73.1947 52.9627 73.12 52.888C73.0453 52.8133 73.008 52.7173 73.008 52.6V45.08C73.008 44.9627 73.0453 44.8667 73.12 44.792C73.1947 44.7173 73.2853 44.68 73.392 44.68H74.96C75.0773 44.68 75.1733 44.7173 75.248 44.792C75.3227 44.8667 75.36 44.9627 75.36 45.08V47.832H76.368L78.224 44.936C78.256 44.872 78.304 44.8133 78.368 44.76C78.4427 44.7067 78.5387 44.68 78.656 44.68H80.4C80.496 44.68 80.576 44.712 80.64 44.776C80.7147 44.8293 80.752 44.8987 80.752 44.984C80.752 45.016 80.7413 45.0533 80.72 45.096C80.7093 45.1387 80.6933 45.176 80.672 45.208L78.416 48.696L81.024 52.488C81.0667 52.552 81.088 52.6213 81.088 52.696C81.088 52.7813 81.056 52.856 80.992 52.92C80.928 52.9733 80.848 53 80.752 53H78.816C78.7093 53 78.6187 52.9787 78.544 52.936C78.48 52.8827 78.4213 52.8187 78.368 52.744L76.352 49.736H75.36V52.6C75.36 52.7173 75.3227 52.8133 75.248 52.888C75.1733 52.9627 75.0773 53 74.96 53H73.392ZM84.8623 53.16C84.2969 53.16 83.7903 53.0533 83.3423 52.84C82.8943 52.616 82.5369 52.3173 82.2703 51.944C82.0036 51.5707 81.8703 51.1547 81.8703 50.696C81.8703 49.9387 82.1743 49.3413 82.7823 48.904C83.4009 48.4667 84.2116 48.168 85.2143 48.008L87.3103 47.704V47.416C87.3103 47 87.2143 46.68 87.0223 46.456C86.8303 46.232 86.4943 46.12 86.0143 46.12C85.6623 46.12 85.3796 46.1893 85.1663 46.328C84.9529 46.4667 84.7876 46.648 84.6703 46.872C84.5849 47.0107 84.4623 47.08 84.3023 47.08H82.7823C82.6649 47.08 82.5743 47.048 82.5103 46.984C82.4463 46.9093 82.4196 46.824 82.4303 46.728C82.4303 46.5467 82.4996 46.3333 82.6383 46.088C82.7769 45.8427 82.9903 45.6027 83.2783 45.368C83.5663 45.1227 83.9343 44.92 84.3823 44.76C84.8303 44.6 85.3796 44.52 86.0303 44.52C86.7023 44.52 87.2783 44.6 87.7583 44.76C88.2383 44.92 88.6223 45.144 88.9103 45.432C89.1983 45.72 89.4116 46.056 89.5503 46.44C89.6889 46.8133 89.7583 47.2187 89.7583 47.656V52.6C89.7583 52.7173 89.7209 52.8133 89.6463 52.888C89.5716 52.9627 89.4756 53 89.3583 53H87.7903C87.6836 53 87.5929 52.9627 87.5183 52.888C87.4436 52.8133 87.4063 52.7173 87.4063 52.6V52.008C87.2676 52.2107 87.0809 52.4027 86.8463 52.584C86.6116 52.7547 86.3289 52.8933 85.9983 53C85.6782 53.1067 85.2996 53.16 84.8623 53.16ZM85.5023 51.496C85.8543 51.496 86.1689 51.4213 86.4463 51.272C86.7236 51.1227 86.9423 50.8933 87.1023 50.584C87.2623 50.2747 87.3423 49.8853 87.3423 49.416V49.144L85.8543 49.384C85.2783 49.48 84.8569 49.624 84.5903 49.816C84.3236 50.008 84.1903 50.2427 84.1903 50.52C84.1903 50.7227 84.2489 50.8987 84.3663 51.048C84.4943 51.1973 84.6596 51.3093 84.8623 51.384C85.0649 51.4587 85.2783 51.496 85.5023 51.496ZM96.1595 56.04C96.0422 56.04 95.9462 56.0027 95.8715 55.928C95.7968 55.8533 95.7595 55.7573 95.7595 55.64V53C94.7995 53 93.9995 52.856 93.3595 52.568C92.7302 52.28 92.2555 51.8747 91.9355 51.352C91.6155 50.8187 91.4342 50.1947 91.3915 49.48C91.3595 49.0533 91.3595 48.6267 91.3915 48.2C91.4342 47.4853 91.6208 46.8667 91.9515 46.344C92.2928 45.8107 92.7782 45.4 93.4075 45.112C94.0475 44.824 94.8315 44.68 95.7595 44.68V42.04C95.7595 41.9227 95.7968 41.8267 95.8715 41.752C95.9462 41.6773 96.0422 41.64 96.1595 41.64H97.7595C97.8662 41.64 97.9568 41.6773 98.0315 41.752C98.1062 41.8267 98.1435 41.9227 98.1435 42.04V44.68C99.0822 44.68 99.8662 44.824 100.496 45.112C101.136 45.4 101.621 45.8107 101.952 46.344C102.293 46.8667 102.485 47.4853 102.528 48.2C102.549 48.6267 102.549 49.0533 102.528 49.48C102.485 50.1947 102.298 50.8187 101.968 51.352C101.648 51.8747 101.173 52.28 100.544 52.568C99.9142 52.856 99.1142 53 98.1435 53V55.64C98.1435 55.7573 98.1062 55.8533 98.0315 55.928C97.9568 56.0027 97.8662 56.04 97.7595 56.04H96.1595ZM95.7755 51.24V46.44C95.0928 46.44 94.5915 46.6 94.2715 46.92C93.9622 47.24 93.7915 47.72 93.7595 48.36C93.7488 48.5093 93.7435 48.6747 93.7435 48.856C93.7435 49.0267 93.7488 49.1813 93.7595 49.32C93.8022 49.9707 93.9782 50.456 94.2875 50.776C94.6075 51.0853 95.1035 51.24 95.7755 51.24ZM98.1275 51.24C98.8208 51.24 99.3222 51.08 99.6315 50.76C99.9408 50.44 100.117 49.96 100.16 49.32C100.17 49.1813 100.176 49.0267 100.176 48.856C100.176 48.6747 100.17 48.5093 100.16 48.36C100.128 47.7093 99.9462 47.2293 99.6155 46.92C99.2955 46.6 98.7995 46.44 98.1275 46.44V51.24ZM107.954 53.16C106.728 53.16 105.752 52.8187 105.026 52.136C104.312 51.4533 103.933 50.4613 103.89 49.16C103.89 49.0747 103.89 48.9627 103.89 48.824C103.89 48.6747 103.89 48.5573 103.89 48.472C103.933 47.6507 104.12 46.9467 104.45 46.36C104.781 45.7627 105.245 45.3093 105.842 45C106.44 44.68 107.138 44.52 107.938 44.52C108.834 44.52 109.581 44.7067 110.178 45.08C110.786 45.4427 111.24 45.944 111.538 46.584C111.848 47.2133 112.002 47.9387 112.002 48.76V49.128C112.002 49.2347 111.96 49.3253 111.874 49.4C111.8 49.4747 111.709 49.512 111.602 49.512H106.37C106.37 49.5227 106.37 49.544 106.37 49.576C106.37 49.5973 106.37 49.6187 106.37 49.64C106.381 49.9813 106.445 50.296 106.562 50.584C106.69 50.8613 106.866 51.0853 107.09 51.256C107.325 51.4267 107.602 51.512 107.922 51.512C108.189 51.512 108.408 51.4747 108.578 51.4C108.749 51.3253 108.888 51.2347 108.994 51.128C109.112 51.0213 109.197 50.9307 109.25 50.856C109.346 50.7493 109.421 50.6853 109.474 50.664C109.538 50.632 109.634 50.616 109.762 50.616H111.426C111.533 50.616 111.618 50.648 111.682 50.712C111.757 50.7653 111.789 50.8453 111.778 50.952C111.768 51.1227 111.677 51.336 111.506 51.592C111.346 51.8373 111.106 52.0827 110.786 52.328C110.466 52.5627 110.066 52.76 109.586 52.92C109.117 53.08 108.573 53.16 107.954 53.16ZM106.37 48.056H109.506V48.024C109.506 47.64 109.442 47.3093 109.314 47.032C109.197 46.744 109.021 46.52 108.786 46.36C108.552 46.2 108.269 46.12 107.938 46.12C107.608 46.12 107.325 46.2 107.09 46.36C106.856 46.52 106.674 46.744 106.546 47.032C106.429 47.3093 106.37 47.64 106.37 48.024V48.056ZM117.501 53C117.405 53 117.32 52.9627 117.245 52.888C117.17 52.8133 117.133 52.7227 117.133 52.616V45.08C117.133 44.9627 117.17 44.8667 117.245 44.792C117.32 44.7173 117.41 44.68 117.517 44.68H119.117C119.234 44.68 119.33 44.7173 119.405 44.792C119.48 44.8667 119.517 44.9627 119.517 45.08V51.16L118.877 50.792L123.053 44.936C123.106 44.8613 123.165 44.8027 123.229 44.76C123.304 44.7067 123.394 44.68 123.501 44.68H124.941C125.048 44.68 125.138 44.7173 125.213 44.792C125.288 44.8667 125.325 44.952 125.325 45.048V52.6C125.325 52.7173 125.288 52.8133 125.213 52.888C125.138 52.9627 125.042 53 124.925 53H123.325C123.218 53 123.128 52.9627 123.053 52.888C122.978 52.8133 122.941 52.7173 122.941 52.6V46.76L123.597 46.872L119.389 52.744C119.346 52.8187 119.288 52.8827 119.213 52.936C119.138 52.9787 119.053 53 118.957 53H117.501ZM131.142 56.04C131.025 56.04 130.929 56.0027 130.854 55.928C130.78 55.8533 130.742 55.7573 130.742 55.64V45.08C130.742 44.9627 130.78 44.8667 130.854 44.792C130.929 44.7173 131.025 44.68 131.142 44.68H132.662C132.78 44.68 132.876 44.7173 132.95 44.792C133.025 44.8667 133.062 44.9627 133.062 45.08V45.688C133.318 45.3467 133.649 45.0693 134.054 44.856C134.46 44.632 134.966 44.52 135.574 44.52C136.129 44.52 136.609 44.6107 137.014 44.792C137.43 44.9627 137.777 45.2133 138.054 45.544C138.342 45.864 138.561 46.2533 138.71 46.712C138.87 47.1707 138.961 47.688 138.982 48.264C138.993 48.4667 138.998 48.6587 138.998 48.84C138.998 49.0213 138.993 49.2187 138.982 49.432C138.972 49.976 138.886 50.4773 138.726 50.936C138.577 51.3947 138.358 51.7893 138.07 52.12C137.782 52.4507 137.43 52.7067 137.014 52.888C136.609 53.0693 136.129 53.16 135.574 53.16C135.03 53.16 134.556 53.064 134.15 52.872C133.756 52.6693 133.43 52.3973 133.174 52.056V55.64C133.174 55.7573 133.137 55.8533 133.062 55.928C132.988 56.0027 132.897 56.04 132.79 56.04H131.142ZM134.854 51.24C135.26 51.24 135.58 51.1547 135.814 50.984C136.049 50.8027 136.214 50.568 136.31 50.28C136.417 49.992 136.481 49.6773 136.502 49.336C136.524 49.0053 136.524 48.6747 136.502 48.344C136.481 48.0027 136.417 47.688 136.31 47.4C136.214 47.112 136.049 46.8827 135.814 46.712C135.58 46.5307 135.26 46.44 134.854 46.44C134.46 46.44 134.14 46.5307 133.894 46.712C133.649 46.8933 133.473 47.1227 133.366 47.4C133.26 47.6773 133.196 47.976 133.174 48.296C133.164 48.488 133.158 48.6853 133.158 48.888C133.158 49.0907 133.164 49.2933 133.174 49.496C133.185 49.7947 133.249 50.0773 133.366 50.344C133.494 50.6 133.676 50.8133 133.91 50.984C134.156 51.1547 134.47 51.24 134.854 51.24ZM144.408 53.16C143.181 53.16 142.205 52.8187 141.48 52.136C140.765 51.4533 140.386 50.4613 140.344 49.16C140.344 49.0747 140.344 48.9627 140.344 48.824C140.344 48.6747 140.344 48.5573 140.344 48.472C140.386 47.6507 140.573 46.9467 140.904 46.36C141.234 45.7627 141.698 45.3093 142.296 45C142.893 44.68 143.592 44.52 144.391 44.52C145.288 44.52 146.034 44.7067 146.632 45.08C147.24 45.4427 147.693 45.944 147.992 46.584C148.301 47.2133 148.456 47.9387 148.456 48.76V49.128C148.456 49.2347 148.413 49.3253 148.328 49.4C148.253 49.4747 148.162 49.512 148.056 49.512H142.824C142.824 49.5227 142.824 49.544 142.824 49.576C142.824 49.5973 142.824 49.6187 142.824 49.64C142.834 49.9813 142.898 50.296 143.016 50.584C143.144 50.8613 143.32 51.0853 143.544 51.256C143.778 51.4267 144.056 51.512 144.376 51.512C144.642 51.512 144.861 51.4747 145.032 51.4C145.202 51.3253 145.341 51.2347 145.448 51.128C145.565 51.0213 145.65 50.9307 145.704 50.856C145.8 50.7493 145.874 50.6853 145.928 50.664C145.992 50.632 146.088 50.616 146.216 50.616H147.88C147.986 50.616 148.072 50.648 148.135 50.712C148.21 50.7653 148.242 50.8453 148.232 50.952C148.221 51.1227 148.13 51.336 147.96 51.592C147.8 51.8373 147.56 52.0827 147.24 52.328C146.92 52.5627 146.52 52.76 146.04 52.92C145.57 53.08 145.026 53.16 144.408 53.16ZM142.824 48.056H145.96V48.024C145.96 47.64 145.896 47.3093 145.768 47.032C145.65 46.744 145.474 46.52 145.24 46.36C145.005 46.2 144.722 46.12 144.391 46.12C144.061 46.12 143.778 46.2 143.544 46.36C143.309 46.52 143.128 46.744 143 47.032C142.882 47.3093 142.824 47.64 142.824 48.024V48.056ZM153.751 53.16C152.972 53.16 152.284 53.016 151.687 52.728C151.1 52.44 150.636 52.024 150.295 51.48C149.954 50.9253 149.767 50.264 149.735 49.496C149.724 49.3253 149.719 49.112 149.719 48.856C149.719 48.5893 149.724 48.3707 149.735 48.2C149.767 47.4213 149.948 46.76 150.279 46.216C150.62 45.6613 151.09 45.24 151.687 44.952C152.284 44.664 152.972 44.52 153.751 44.52C154.466 44.52 155.074 44.6213 155.575 44.824C156.076 45.016 156.487 45.2613 156.807 45.56C157.127 45.8587 157.362 46.1733 157.511 46.504C157.671 46.824 157.756 47.1067 157.767 47.352C157.778 47.4587 157.74 47.5547 157.655 47.64C157.58 47.7147 157.49 47.752 157.383 47.752H155.671C155.564 47.752 155.479 47.7253 155.415 47.672C155.362 47.608 155.308 47.5227 155.255 47.416C155.106 47.0427 154.914 46.776 154.679 46.616C154.444 46.456 154.151 46.376 153.799 46.376C153.319 46.376 152.94 46.5307 152.663 46.84C152.386 47.1493 152.236 47.6293 152.215 48.28C152.204 48.696 152.204 49.0747 152.215 49.416C152.247 50.0773 152.396 50.5573 152.663 50.856C152.94 51.1547 153.319 51.304 153.799 51.304C154.172 51.304 154.471 51.224 154.695 51.064C154.919 50.904 155.106 50.6373 155.255 50.264C155.298 50.1573 155.351 50.0773 155.415 50.024C155.479 49.96 155.564 49.928 155.671 49.928H157.383C157.49 49.928 157.58 49.9707 157.655 50.056C157.74 50.1307 157.778 50.2213 157.767 50.328C157.756 50.5093 157.703 50.7227 157.607 50.968C157.522 51.2133 157.378 51.464 157.175 51.72C156.983 51.976 156.732 52.216 156.423 52.44C156.114 52.6533 155.735 52.8293 155.287 52.968C154.85 53.096 154.338 53.16 153.751 53.16ZM161.864 53C161.747 53 161.651 52.9627 161.576 52.888C161.501 52.8133 161.464 52.7173 161.464 52.6V46.568H158.952C158.835 46.568 158.739 46.5307 158.664 46.456C158.589 46.3813 158.552 46.2853 158.552 46.168V45.08C158.552 44.9627 158.589 44.8667 158.664 44.792C158.739 44.7173 158.835 44.68 158.952 44.68H166.328C166.445 44.68 166.541 44.7173 166.616 44.792C166.691 44.8667 166.728 44.9627 166.728 45.08V46.168C166.728 46.2853 166.691 46.3813 166.616 46.456C166.541 46.5307 166.445 46.568 166.328 46.568H163.816V52.6C163.816 52.7173 163.779 52.8133 163.704 52.888C163.629 52.9627 163.539 53 163.432 53H161.864ZM171.769 53.16C170.884 53.16 170.142 53.016 169.545 52.728C168.948 52.4293 168.489 52.008 168.169 51.464C167.86 50.92 167.689 50.2853 167.657 49.56C167.646 49.3467 167.641 49.1067 167.641 48.84C167.641 48.5627 167.646 48.3227 167.657 48.12C167.689 47.384 167.87 46.7493 168.201 46.216C168.532 45.672 168.996 45.256 169.593 44.968C170.19 44.6693 170.916 44.52 171.769 44.52C172.612 44.52 173.332 44.6693 173.929 44.968C174.526 45.256 174.99 45.672 175.321 46.216C175.652 46.7493 175.833 47.384 175.865 48.12C175.886 48.3227 175.897 48.5627 175.897 48.84C175.897 49.1067 175.886 49.3467 175.865 49.56C175.833 50.2853 175.657 50.92 175.337 51.464C175.028 52.008 174.574 52.4293 173.977 52.728C173.38 53.016 172.644 53.16 171.769 53.16ZM171.769 51.4C172.292 51.4 172.686 51.24 172.953 50.92C173.22 50.5893 173.364 50.1093 173.385 49.48C173.396 49.32 173.401 49.1067 173.401 48.84C173.401 48.5733 173.396 48.36 173.385 48.2C173.364 47.5813 173.22 47.1067 172.953 46.776C172.686 46.4453 172.292 46.28 171.769 46.28C171.246 46.28 170.846 46.4453 170.569 46.776C170.302 47.1067 170.158 47.5813 170.137 48.2C170.126 48.36 170.121 48.5733 170.121 48.84C170.121 49.1067 170.126 49.32 170.137 49.48C170.158 50.1093 170.302 50.5893 170.569 50.92C170.846 51.24 171.246 51.4 171.769 51.4ZM177.971 56.04C177.853 56.04 177.757 56.0027 177.683 55.928C177.608 55.8533 177.571 55.7573 177.571 55.64V45.08C177.571 44.9627 177.608 44.8667 177.683 44.792C177.757 44.7173 177.853 44.68 177.971 44.68H179.491C179.608 44.68 179.704 44.7173 179.779 44.792C179.853 44.8667 179.891 44.9627 179.891 45.08V45.688C180.147 45.3467 180.477 45.0693 180.883 44.856C181.288 44.632 181.795 44.52 182.403 44.52C182.957 44.52 183.437 44.6107 183.843 44.792C184.259 44.9627 184.605 45.2133 184.883 45.544C185.171 45.864 185.389 46.2533 185.539 46.712C185.699 47.1707 185.789 47.688 185.811 48.264C185.821 48.4667 185.827 48.6587 185.827 48.84C185.827 49.0213 185.821 49.2187 185.811 49.432C185.8 49.976 185.715 50.4773 185.555 50.936C185.405 51.3947 185.187 51.7893 184.899 52.12C184.611 52.4507 184.259 52.7067 183.843 52.888C183.437 53.0693 182.957 53.16 182.403 53.16C181.859 53.16 181.384 53.064 180.979 52.872C180.584 52.6693 180.259 52.3973 180.003 52.056V55.64C180.003 55.7573 179.965 55.8533 179.891 55.928C179.816 56.0027 179.725 56.04 179.619 56.04H177.971ZM181.683 51.24C182.088 51.24 182.408 51.1547 182.643 50.984C182.877 50.8027 183.043 50.568 183.139 50.28C183.245 49.992 183.309 49.6773 183.331 49.336C183.352 49.0053 183.352 48.6747 183.331 48.344C183.309 48.0027 183.245 47.688 183.139 47.4C183.043 47.112 182.877 46.8827 182.643 46.712C182.408 46.5307 182.088 46.44 181.683 46.44C181.288 46.44 180.968 46.5307 180.723 46.712C180.477 46.8933 180.301 47.1227 180.195 47.4C180.088 47.6773 180.024 47.976 180.003 48.296C179.992 48.488 179.987 48.6853 179.987 48.888C179.987 49.0907 179.992 49.2933 180.003 49.496C180.013 49.7947 180.077 50.0773 180.195 50.344C180.323 50.6 180.504 50.8133 180.739 50.984C180.984 51.1547 181.299 51.24 181.683 51.24ZM189.972 53.16C189.406 53.16 188.9 53.0533 188.452 52.84C188.004 52.616 187.646 52.3173 187.38 51.944C187.113 51.5707 186.98 51.1547 186.98 50.696C186.98 49.9387 187.284 49.3413 187.892 48.904C188.51 48.4667 189.321 48.168 190.324 48.008L192.42 47.704V47.416C192.42 47 192.324 46.68 192.132 46.456C191.94 46.232 191.604 46.12 191.124 46.12C190.772 46.12 190.489 46.1893 190.276 46.328C190.062 46.4667 189.897 46.648 189.78 46.872C189.694 47.0107 189.572 47.08 189.412 47.08H187.892C187.774 47.08 187.684 47.048 187.62 46.984C187.556 46.9093 187.529 46.824 187.54 46.728C187.54 46.5467 187.609 46.3333 187.748 46.088C187.886 45.8427 188.1 45.6027 188.388 45.368C188.676 45.1227 189.044 44.92 189.492 44.76C189.94 44.6 190.489 44.52 191.14 44.52C191.812 44.52 192.388 44.6 192.868 44.76C193.348 44.92 193.732 45.144 194.02 45.432C194.308 45.72 194.521 46.056 194.66 46.44C194.798 46.8133 194.868 47.2187 194.868 47.656V52.6C194.868 52.7173 194.83 52.8133 194.756 52.888C194.681 52.9627 194.585 53 194.468 53H192.9C192.793 53 192.702 52.9627 192.628 52.888C192.553 52.8133 192.516 52.7173 192.516 52.6V52.008C192.377 52.2107 192.19 52.4027 191.956 52.584C191.721 52.7547 191.438 52.8933 191.108 53C190.788 53.1067 190.409 53.16 189.972 53.16ZM190.612 51.496C190.964 51.496 191.278 51.4213 191.556 51.272C191.833 51.1227 192.052 50.8933 192.212 50.584C192.372 50.2747 192.452 49.8853 192.452 49.416V49.144L190.964 49.384C190.388 49.48 189.966 49.624 189.7 49.816C189.433 50.008 189.3 50.2427 189.3 50.52C189.3 50.7227 189.358 50.8987 189.476 51.048C189.604 51.1973 189.769 51.3093 189.972 51.384C190.174 51.4587 190.388 51.496 190.612 51.496ZM197.189 53C197.082 53 196.992 52.9627 196.917 52.888C196.842 52.8133 196.805 52.7173 196.805 52.6V45.08C196.805 44.9627 196.842 44.8667 196.917 44.792C196.992 44.7173 197.082 44.68 197.189 44.68H198.789C198.906 44.68 199.002 44.7173 199.077 44.792C199.152 44.8667 199.189 44.9627 199.189 45.08V47.832H202.437V45.08C202.437 44.9627 202.474 44.8667 202.549 44.792C202.624 44.7173 202.72 44.68 202.837 44.68H204.437C204.544 44.68 204.634 44.7173 204.709 44.792C204.784 44.8667 204.821 44.9627 204.821 45.08V52.6C204.821 52.7173 204.784 52.8133 204.709 52.888C204.634 52.9627 204.544 53 204.437 53H202.837C202.72 53 202.624 52.9627 202.549 52.888C202.474 52.8133 202.437 52.7173 202.437 52.6V49.72H199.189V52.6C199.189 52.7173 199.152 52.8133 199.077 52.888C199.002 52.9627 198.906 53 198.789 53H197.189ZM210.691 53.16C209.806 53.16 209.064 53.016 208.467 52.728C207.87 52.4293 207.411 52.008 207.091 51.464C206.782 50.92 206.611 50.2853 206.579 49.56C206.568 49.3467 206.563 49.1067 206.563 48.84C206.563 48.5627 206.568 48.3227 206.579 48.12C206.611 47.384 206.792 46.7493 207.123 46.216C207.454 45.672 207.918 45.256 208.515 44.968C209.112 44.6693 209.838 44.52 210.691 44.52C211.534 44.52 212.254 44.6693 212.851 44.968C213.448 45.256 213.912 45.672 214.243 46.216C214.574 46.7493 214.755 47.384 214.787 48.12C214.808 48.3227 214.819 48.5627 214.819 48.84C214.819 49.1067 214.808 49.3467 214.787 49.56C214.755 50.2853 214.579 50.92 214.259 51.464C213.95 52.008 213.496 52.4293 212.899 52.728C212.302 53.016 211.566 53.16 210.691 53.16ZM210.691 51.4C211.214 51.4 211.608 51.24 211.875 50.92C212.142 50.5893 212.286 50.1093 212.307 49.48C212.318 49.32 212.323 49.1067 212.323 48.84C212.323 48.5733 212.318 48.36 212.307 48.2C212.286 47.5813 212.142 47.1067 211.875 46.776C211.608 46.4453 211.214 46.28 210.691 46.28C210.168 46.28 209.768 46.4453 209.491 46.776C209.224 47.1067 209.08 47.5813 209.059 48.2C209.048 48.36 209.043 48.5733 209.043 48.84C209.043 49.1067 209.048 49.32 209.059 49.48C209.08 50.1093 209.224 50.5893 209.491 50.92C209.768 51.24 210.168 51.4 210.691 51.4ZM216.876 53C216.77 53 216.679 52.9627 216.604 52.888C216.53 52.8133 216.492 52.7173 216.492 52.6V45.08C216.492 44.9627 216.53 44.8667 216.604 44.792C216.679 44.7173 216.77 44.68 216.876 44.68H220.524C221.719 44.68 222.594 44.8933 223.148 45.32C223.714 45.736 223.996 46.3013 223.996 47.016C223.996 47.4427 223.916 47.784 223.756 48.04C223.596 48.2853 223.372 48.4987 223.084 48.68C223.447 48.8507 223.73 49.1067 223.932 49.448C224.146 49.7787 224.252 50.152 224.252 50.568C224.252 51.3253 223.959 51.9227 223.372 52.36C222.786 52.7867 221.906 53 220.732 53H216.876ZM218.796 51.432H220.588C220.962 51.432 221.26 51.3627 221.484 51.224C221.719 51.0747 221.836 50.8453 221.836 50.536C221.836 50.216 221.73 49.9867 221.516 49.848C221.303 49.7093 220.994 49.64 220.588 49.64H218.796V51.432ZM218.796 48.008H220.524C220.908 48.008 221.212 47.928 221.436 47.768C221.66 47.608 221.772 47.3787 221.772 47.08C221.772 46.7707 221.66 46.5573 221.436 46.44C221.212 46.312 220.908 46.248 220.524 46.248H218.796V48.008Z" fill="#464646"/>
<path d="M129.229 38.16C128.439 38.16 127.762 38.064 127.197 37.872C126.631 37.68 126.167 37.4347 125.805 37.136C125.442 36.8373 125.17 36.512 124.989 36.16C124.807 35.7973 124.711 35.4507 124.701 35.12C124.701 35.024 124.733 34.944 124.797 34.88C124.861 34.816 124.941 34.784 125.037 34.784H126.797C126.914 34.784 127.01 34.8107 127.085 34.864C127.159 34.9067 127.229 34.9867 127.293 35.104C127.378 35.3493 127.517 35.5467 127.709 35.696C127.901 35.8453 128.125 35.952 128.381 36.016C128.647 36.0693 128.93 36.096 129.229 36.096C129.826 36.096 130.295 35.9573 130.637 35.68C130.978 35.4027 131.149 35.0133 131.149 34.512C131.149 34 130.989 33.632 130.669 33.408C130.349 33.184 129.895 33.072 129.309 33.072H127.597C127.49 33.072 127.399 33.0347 127.325 32.96C127.25 32.8853 127.213 32.7947 127.213 32.688V31.904C127.213 31.776 127.234 31.6693 127.277 31.584C127.33 31.4987 127.383 31.4347 127.437 31.392L130.189 28.864H125.677C125.559 28.864 125.463 28.8267 125.389 28.752C125.314 28.6773 125.277 28.5867 125.277 28.48V27.2C125.277 27.0827 125.314 26.9867 125.389 26.912C125.463 26.8373 125.559 26.8 125.677 26.8H132.781C132.898 26.8 132.994 26.8373 133.069 26.912C133.143 26.9867 133.181 27.0827 133.181 27.2V28.352C133.181 28.4693 133.159 28.5707 133.117 28.656C133.074 28.7307 133.021 28.7893 132.957 28.832L130.349 31.408L130.509 31.424C131.138 31.488 131.698 31.6427 132.189 31.888C132.679 32.1333 133.063 32.4853 133.341 32.944C133.629 33.392 133.773 33.9627 133.773 34.656C133.773 35.3813 133.575 36.0053 133.181 36.528C132.786 37.0507 132.247 37.456 131.565 37.744C130.882 38.0213 130.103 38.16 129.229 38.16ZM144.241 38C144.134 38 144.043 37.9627 143.969 37.888C143.894 37.8133 143.857 37.7173 143.857 37.6V35.68H138.817C138.71 35.68 138.619 35.6427 138.545 35.568C138.47 35.4933 138.433 35.3973 138.433 35.28V33.984C138.433 33.9093 138.449 33.8293 138.481 33.744C138.513 33.6587 138.555 33.5787 138.609 33.504L143.297 27.072C143.435 26.8907 143.633 26.8 143.889 26.8H145.921C146.027 26.8 146.118 26.8373 146.193 26.912C146.267 26.9867 146.305 27.0827 146.305 27.2V33.552H147.729C147.857 33.552 147.953 33.5893 148.017 33.664C148.091 33.7387 148.129 33.8293 148.129 33.936V35.28C148.129 35.3973 148.091 35.4933 148.017 35.568C147.942 35.6427 147.851 35.68 147.745 35.68H146.305V37.6C146.305 37.7173 146.267 37.8133 146.193 37.888C146.118 37.9627 146.027 38 145.921 38H144.241ZM140.913 33.632H143.905V29.424L140.913 33.632ZM153.969 38.16C153.222 38.16 152.561 38.0747 151.985 37.904C151.419 37.7227 150.945 37.4773 150.561 37.168C150.177 36.848 149.889 36.48 149.697 36.064C149.505 35.6373 149.409 35.1733 149.409 34.672C149.409 34.064 149.558 33.536 149.857 33.088C150.155 32.64 150.534 32.2933 150.993 32.048C150.619 31.8027 150.326 31.4933 150.113 31.12C149.91 30.736 149.809 30.2933 149.809 29.792C149.809 29.184 149.963 28.6453 150.273 28.176C150.582 27.7067 151.041 27.3333 151.649 27.056C152.267 26.7787 153.041 26.64 153.969 26.64C154.886 26.64 155.649 26.7787 156.257 27.056C156.865 27.3227 157.323 27.6907 157.633 28.16C157.942 28.6293 158.097 29.168 158.097 29.776C158.097 30.2773 157.995 30.72 157.793 31.104C157.59 31.488 157.302 31.8027 156.929 32.048C157.419 32.2827 157.809 32.6293 158.097 33.088C158.385 33.5467 158.529 34.08 158.529 34.688C158.529 35.3493 158.358 35.9413 158.017 36.464C157.675 36.9867 157.163 37.4027 156.481 37.712C155.798 38.0107 154.961 38.16 153.969 38.16ZM153.969 36.32C154.342 36.32 154.683 36.256 154.993 36.128C155.302 35.9893 155.542 35.7973 155.713 35.552C155.894 35.3067 155.985 35.0187 155.985 34.688C155.985 34.3467 155.894 34.0587 155.713 33.824C155.542 33.5787 155.302 33.392 154.993 33.264C154.683 33.1253 154.342 33.056 153.969 33.056C153.585 33.056 153.238 33.1253 152.929 33.264C152.63 33.392 152.39 33.5787 152.209 33.824C152.027 34.0587 151.937 34.3467 151.937 34.688C151.937 35.0187 152.027 35.3067 152.209 35.552C152.39 35.7973 152.63 35.9893 152.929 36.128C153.238 36.256 153.585 36.32 153.969 36.32ZM153.969 31.312C154.299 31.3013 154.598 31.2373 154.865 31.12C155.131 31.0027 155.345 30.8427 155.505 30.64C155.665 30.4267 155.745 30.1813 155.745 29.904C155.745 29.616 155.665 29.3707 155.505 29.168C155.355 28.9547 155.147 28.7893 154.881 28.672C154.614 28.5547 154.31 28.496 153.969 28.496C153.627 28.496 153.318 28.5547 153.041 28.672C152.774 28.7893 152.566 28.9547 152.417 29.168C152.267 29.3707 152.193 29.616 152.193 29.904C152.193 30.192 152.267 30.4427 152.417 30.656C152.566 30.8587 152.774 31.0187 153.041 31.136C153.318 31.2533 153.627 31.312 153.969 31.312ZM165.569 38C165.462 38 165.372 37.9627 165.297 37.888C165.222 37.8133 165.185 37.7173 165.185 37.6V35.68H160.145C160.038 35.68 159.948 35.6427 159.873 35.568C159.798 35.4933 159.761 35.3973 159.761 35.28V33.984C159.761 33.9093 159.777 33.8293 159.809 33.744C159.841 33.6587 159.884 33.5787 159.937 33.504L164.625 27.072C164.764 26.8907 164.961 26.8 165.217 26.8H167.249C167.356 26.8 167.446 26.8373 167.521 26.912C167.596 26.9867 167.633 27.0827 167.633 27.2V33.552H169.057C169.185 33.552 169.281 33.5893 169.345 33.664C169.42 33.7387 169.457 33.8293 169.457 33.936V35.28C169.457 35.3973 169.42 35.4933 169.345 35.568C169.27 35.6427 169.18 35.68 169.073 35.68H167.633V37.6C167.633 37.7173 167.596 37.8133 167.521 37.888C167.446 37.9627 167.356 38 167.249 38H165.569ZM162.241 33.632H165.233V29.424L162.241 33.632Z" fill="#7C68CB"/>
<path d="M31 34.3333V35.625C31 36.3101 31.2634 36.9672 31.7322 37.4517C32.2011 37.9362 32.837 38.2083 33.5 38.2083H37.25C37.913 38.2083 38.5489 37.9362 39.0178 37.4517C39.4866 36.9672 39.75 36.3101 39.75 35.625C39.75 36.3101 40.0134 36.9672 40.4822 37.4517C40.9511 37.9362 41.587 38.2083 42.25 38.2083H49.75C50.413 38.2083 51.0489 37.9362 51.5178 37.4517C51.9866 36.9672 52.25 36.3101 52.25 35.625C52.25 36.3101 52.5134 36.9672 52.9822 37.4517C53.4511 37.9362 54.087 38.2083 54.75 38.2083H58.5C59.163 38.2083 59.7989 37.9362 60.2678 37.4517C60.7366 36.9672 61 36.3101 61 35.625V34.3333H31Z" fill="#7C68CB"/>
<path d="M60.6928 33.0417L58.4519 24.9365C58.3772 24.6666 58.2195 24.4293 58.0026 24.2603C57.7858 24.0914 57.5216 24 57.25 24H51.5247L53.2747 33.0417H60.6928Z" fill="#7C68CB"/>
<path d="M40.4753 24H34.75C34.4784 24 34.2142 24.0914 33.9974 24.2603C33.7805 24.4293 33.6228 24.6666 33.5481 24.9365L31.3072 33.0417H38.7253L40.4753 24Z" fill="#7C68CB"/>
<path d="M48.9753 24H43.0247L41.2747 33.0417H50.7253L48.9753 24Z" fill="#7C68CB"/>
<path d="M54.75 39.5C53.827 39.5008 52.9365 39.1484 52.25 38.5109C51.5635 39.1484 50.673 39.5008 49.75 39.5H42.25C41.327 39.5008 40.4365 39.1484 39.75 38.5109C39.0635 39.1484 38.173 39.5008 37.25 39.5H33.5C33.0739 39.4991 32.6511 39.4226 32.25 39.274V53.7083C32.25 54.0509 32.3817 54.3794 32.6161 54.6217C32.8505 54.8639 33.1685 55 33.5 55H36V43.375C36 43.0324 36.1317 42.7039 36.3661 42.4617C36.6005 42.2194 36.9185 42.0833 37.25 42.0833H43.5C43.8315 42.0833 44.1495 42.2194 44.3839 42.4617C44.6183 42.7039 44.75 43.0324 44.75 43.375V55H58.5C58.8315 55 59.1495 54.8639 59.3839 54.6217C59.6183 54.3794 59.75 54.0509 59.75 53.7083V39.274C59.3489 39.4226 58.9261 39.4991 58.5 39.5H54.75ZM56 47.25C56 47.5926 55.8683 47.9211 55.6339 48.1633C55.3995 48.4056 55.0815 48.5417 54.75 48.5417H48.5C48.1685 48.5417 47.8505 48.4056 47.6161 48.1633C47.3817 47.9211 47.25 47.5926 47.25 47.25V43.375C47.25 43.0324 47.3817 42.7039 47.6161 42.4617C47.8505 42.2194 48.1685 42.0833 48.5 42.0833H54.75C55.0815 42.0833 55.3995 42.2194 55.6339 42.4617C55.8683 42.7039 56 43.0324 56 43.375V47.25Z" fill="#7C68CB"/>
</svg>
